<?xml version="1.0" encoding="UTF-8"?>
<!-- Created with Inkscape (http://www.inkscape.org/) -->
<svg width="210mm" height="297mm" version="1.1" viewBox="0 0 210 297" xmlns="http://www.w3.org/2000/svg">
 <path d="m118.7 150.87c0-0.15454 0.0881-0.37338 0.19574-0.48632 0.10766-0.11293 0.48353-0.74028 0.83527-1.3941 0.35174-0.65381 0.86248-1.5778 1.135-2.0533 0.76913-1.3421 1.0733-1.9328 1.0748-2.0869 7.4e-4 -0.0779-0.57208-0.0896-1.2729-0.0261-1.115 0.1011-1.3028 0.0622-1.5027-0.31129-0.17071-0.31897-0.14944-0.53961 0.0842-0.87312 0.36278-0.51794 3.2002-1.6662 3.671-1.4855 0.55507 0.213 0.31518 1.4959-0.55081 2.9457-0.69562 1.1645-1.7516 3.1431-2.3865 4.4714-0.67238 1.4067-1.2829 2.0251-1.2829 1.2996zm3.3452-6.6725c0.6002-0.27347 0.9511-1.1566 0.59933-1.5084-0.5052-0.5052-3.3521 0.93028-2.994 1.5097 0.20128 0.32567 1.6788 0.32488 2.3946-2e-3zm0.76148-3.4212c0-0.24016 0.14409-0.43228 0.32421-0.43228s0.32421 0.19212 0.32421 0.43228c0 0.24015-0.14409 0.43228-0.32421 0.43228s-0.32421-0.19213-0.32421-0.43228z" fill="#ccc" stroke-width=".21614"/>
 <g id="model">
  <path d="m112.61 145.85c-1.5642 0-1.9366-1.1484-1.2955-1.7895 0.83908-0.83908 2.5342-0.35606 1.8471 0.83406" fill="none" stroke="#000" stroke-linecap="round" stroke-linejoin="round" stroke-width=".4252"/>
 </g>
 <g transform="translate(8.3518 23.661)" fill="none" stroke="#000" stroke-linecap="round" stroke-linejoin="round" stroke-width=".4252">
  <g transform="translate(6,10)">
   <title>CharNewline</title>
  </g>
  <g transform="translate(9,12.1)">
   <title>GreggCh</title>
   <path d="m96.841 109.18-3.5 6.0622" data-char="GreggCh" data-head="SW" data-kana="ch" data-key="" data-model="SW7" data-scroll-y="0" data-speed="0.03" data-speed-factor="1" data-tail="SW"/>
  </g>
 </g>
</svg>
