<?xml version="1.0" encoding="UTF-8"?>
<!-- Created with Inkscape (http://www.inkscape.org/) -->
<svg width="210mm" height="297mm" version="1.1" viewBox="0 0 210 297" xmlns="http://www.w3.org/2000/svg">
 <path d="m93.499 166.44c0-0.12508 0.17364-0.28958 0.38587-0.36555 0.91795-0.3286 3.9699-2.5285 4.5753-3.2979 1.423-1.8086 1.8742-2.517 1.8742-2.9426 0-0.5576-0.0882-0.55387-0.8882 0.0376-0.35742 0.26425-0.72549 0.40454-0.81793 0.31176-0.09245-0.0928 0.08-0.35433 0.38315-0.58124 0.30319-0.2269 0.8132-0.61376 1.1334-0.85969 0.51514-0.3957 0.61403-0.40867 0.85965-0.11271 0.6505 0.78379-1.0619 3.7254-3.2203 5.5319-0.97622 0.81708-3.765 2.5059-4.1381 2.5059-0.08084 0-0.14706-0.10234-0.14706-0.22742zm-1.6414-3.7216c-0.42297-0.68437 1.0675-1.652 3.1328-2.0338 2.2217-0.4107 3.8137-2.294 3.4733-4.1087-0.11716-0.62447-0.22217-0.73018-0.66746-0.67182-0.29064 0.0381-0.55782-0.03-0.59373-0.15125-0.03592-0.12128 0.28744-0.25014 0.71856-0.28637 0.65277-0.0548 0.8351 0.0298 1.0903 0.50668 0.25176 0.47041 0.25806 0.75334 0.03534 1.5861-0.1491 0.55745-0.46608 1.2874-0.7044 1.6221-0.23832 0.3347-0.43331 0.76101-0.43331 0.94736 0 0.37972-0.23909 0.57178-0.86084 0.69152-0.37499 0.0722-2.1621 1.1284-2.4466 1.446-0.14958 0.16695-1.8411 0.65282-2.2727 0.65282-0.191 0-0.40307-0.0903-0.47126-0.2006zm2.4132-0.8636c0.49757-0.2609 0.56954-0.36655 0.29042-0.42638-0.4095-0.0878-1.6087 0.46469-1.8475 0.85114-0.18361 0.29709 0.57519 0.0901 1.5571-0.42476z" fill="#b3b3b3" stroke-width=".2205"/>
 <g transform="matrix(-1 0 0 1 88.779 160.7)" fill="none" stroke="#000" stroke-linecap="round" stroke-linejoin="round" stroke-width=".4252">
  <title>CharNewline</title>
 </g>
 <g id="model" transform="translate(-8.5641 11.572)">
  <path d="m103.67 150.17c-1.052 0.84649-2.6195 1.241-2.8903 0.77196-0.3562-0.61695 2.3037-1.9746 4.2407-1.9746" fill="none" stroke="#000" stroke-linecap="round" stroke-linejoin="round" stroke-width=".4252" data-char="GreggA" data-head="C" data-kana="a" data-key="" data-model="C4" data-scroll-y="0" data-speed="0.03" data-speed-factor="1" data-tail="C"/>
 </g>
 <path d="m98.606 155.68c2.018 1.246-1.61 4.422-3.5 6.062" fill="none" stroke="#000" stroke-linecap="round" stroke-linejoin="round" stroke-width=".425" data-char="GreggR" data-head="EL" data-kana="r" data-key="" data-model="EL7" data-scroll-y="0" data-speed="0.03" data-speed-factor="1" data-tail="EL"/>
 <path d="m99.733 158.25c0 1.4906-2.3448 2.2943-3.2766 2.2943" fill="none" stroke="#000" stroke-linecap="round" stroke-linejoin="round" stroke-width=".425"/>
</svg>
