<?xml version="1.0" encoding="UTF-8"?>
<!-- Created with Inkscape (http://www.inkscape.org/) -->
<svg width="210mm" height="297mm" version="1.1" viewBox="0 0 210 297" xmlns="http://www.w3.org/2000/svg">
 <path d="m96.513 148.56c-0.25664-0.41526 0.13996-1.8329 0.83199-2.974 0.3695-0.60924 1.3241-1.6557 2.1212-2.3254l1.4494-1.2178-1.2665-0.0667c-0.98604-0.052-1.5398 0.0584-2.5004 0.49817-1.4723 0.67404-1.4018 0.66624-1.4018 0.15493 0-0.65325 2.4885-1.2378 4.5334-1.065 1.2954 0.1095 1.873 0.0475 2.9515-0.31668 0.73748-0.24904 1.6716-0.42108 2.0757-0.3823 0.61676 0.0592 0.73485 0.1592 0.73485 0.6223 0 1.0201-2.5341 1.7304-4.3704 1.225-0.54423-0.14979-0.76529-8e-3 -2.1553 1.382-1.6608 1.6608-2.5376 3.2443-2.3064 4.1655 0.0989 0.39405 0.0438 0.53573-0.20858 0.53573-0.18868 0-0.40863-0.10609-0.48877-0.23577zm7.9525-6.5201c0.95442-0.39878 1.0956-0.89084 0.1931-0.67298-1.7725 0.42786-2.2694 0.60197-2.2694 0.79519 0 0.32353 1.1751 0.25437 2.0763-0.12221z" fill="#ccc" stroke-width=".22141"/>
 <g fill="none" stroke="#000" stroke-linecap="round" stroke-linejoin="round">
  <g stroke-width=".425">
   <g>
    <title>CharNewline</title>
   </g>
   <g id="model">
    <title>GreggA</title>
    <path d="m102.96 142.54c0 0.981 3.342 1.065 3.602-0.116 0.282-1.28-2.717-0.768-3.602 0.116" stroke-width=".425" data-char="GreggA" data-head="C" data-kana="a" data-key="" data-model="C4" data-scroll-y="0" data-speed="0.03" data-speed-factor="1" data-tail="C"/>
   </g>
  </g>
  <g transform="translate(59.274 121.05)" stroke-width=".4252">
   <title>GreggR</title>
   <path d="m35.527 20.957c2.3661-0.8172 6.9303-2.3707 7 0" data-char="GreggR" data-head="EL" data-kana="r" data-key="" data-model="EL7" data-scroll-y="0" data-speed="0.03" data-speed-factor="1" data-tail="EL"/>
  </g>
  <g transform="translate(-9.7138 -16.301)" stroke-width=".2126">
   <g>
    <title>CharNewline</title>
   </g>
   <g>
    <title>GreggR</title>
    <path d="m111.51 158.3c-1.89 1.64-5.518 4.816-3.5 6.062" stroke-width=".425" data-char="GreggR" data-head="EL" data-kana="r" data-key="" data-model="EL7" data-scroll-y="0" data-speed="0.03" data-speed-factor="1" data-tail="EL"/>
   </g>
  </g>
 </g>
</svg>
