<?xml version="1.0" encoding="UTF-8"?>
<!-- Created with Inkscape (http://www.inkscape.org/) -->
<svg width="210mm" height="297mm" version="1.1" viewBox="0 0 210 297" xmlns="http://www.w3.org/2000/svg">
 <path d="m103.62 153.29c-0.27842-0.0674-0.75192-0.42437-1.0522-0.79327-0.5083-0.62445-0.67592-0.66809-2.4291-0.63239-1.366 0.0278-2.1742 0.18685-2.9431 0.57909-0.58296 0.29741-1.1699 0.47276-1.3044 0.38967-0.4459-0.27558-0.25309-0.86893 0.32508-1.0004 2.3309-0.52982 3.1492-0.61464 4.8516-0.50288 1.5259 0.10017 1.9603 0.0509 2.07-0.23488 0.48208-1.2563 4.1241-1.102 4.1484 0.17576 2e-3 0.11226-0.36632 0.54973-0.81876 0.97216l-0.82262 0.76806 1.6452-0.17948c1.7212-0.18776 3.436-0.74808 4.0047-1.3086 0.18397-0.18131 0.63958-0.33065 1.0125-0.33186 0.37289-9.6e-4 1.276-0.074 2.0068-0.16182 1.1276-0.13544 1.3289-0.0968 1.3289 0.25532 0 0.28009-0.2262 0.42004-0.69608 0.43067-1.6341 0.0369-2.9504 0.29912-3.8462 0.766-1.5478 0.80678-5.6548 1.2508-7.4808 0.80882zm1.9719-1.1468c0.44681-0.31276 0.85709-0.59477 0.91173-0.62667 0.27544-0.16085-0.61599-0.82961-1.1058-0.82961-0.74777 0-1.9454 1.1172-1.7483 1.6309 0.21431 0.5585 0.99533 0.48828 1.9424-0.17464z" fill="#ccc" stroke-width=".25312"/>
 <g fill="none" stroke="#000" stroke-linecap="round" stroke-linejoin="round">
  <g stroke-width=".41212">
   <g>
    <title>CharNewline</title>
   </g>
   <g id="model">
    <title>GreggA</title>
    <path d="m103.01 152.37c0.57472 2.3338 3.785 0.71753 3.0766-0.90707-0.934-1.617-3.4568-0.51093-3.0766 0.90707" data-char="GreggA" data-head="C" data-kana="a" data-key="" data-model="C4" data-scroll-y="0" data-speed="0.03" data-speed-factor="1" data-tail="C"/>
   </g>
  </g>
  <g transform="translate(60.486 131.41)">
   <g stroke="#000" stroke-width=".4252">
    <title>GreggR</title>
    <path d="m35.527 20.957c2.3661-0.8172 6.9303-2.3707 7 0" data-char="GreggR" data-head="EL" data-kana="r" data-key="" data-model="EL7" data-scroll-y="0" data-speed="0.03" data-speed-factor="1" data-tail="EL"/>
   </g>
  </g>
  <g transform="translate(98.013 137.97)" stroke-width=".4252">
   <g transform="translate(6,10)">
    <title>CharNewline</title>
   </g>
   <g transform="translate(5,14.4)">
    <title>GreggR</title>
    <path d="m0 0c0.069725 2.3707 4.634 0.81718 7 0" data-char="GreggR" data-head="EL" data-kana="r" data-key="" data-model="EL7" data-scroll-y="0" data-speed="0.03" data-speed-factor="1" data-tail="EL"/>
   </g>
  </g>
 </g>
</svg>
