<?xml version="1.0" encoding="UTF-8"?>
<!-- Created with Inkscape (http://www.inkscape.org/) -->
<svg width="210mm" height="297mm" version="1.1" viewBox="0 0 210 297" xmlns="http://www.w3.org/2000/svg">
 <path d="m86.478 166.32c-0.32946-0.36403-0.33965-0.47187-0.0889-0.94039 0.15577-0.29107 0.67873-0.81324 1.1621-1.1604 0.94832-0.68103 0.87479-0.96004-0.253-0.96003-0.87278 1e-5 -3.7903 0.76326-4.2876 1.1217-0.23005 0.1658-0.62544 0.45143-0.87864 0.63473-0.43616 0.31575-0.46036 0.31118-0.46036-0.0869 0-0.59943 0.87285-1.1151 2.8105-1.6603 1.3528-0.38068 1.9379-0.44609 2.9668-0.33162 3.0798 0.34264 5.0294 0.0188 7.4732-1.2416 0.98334-0.5071 1.926-1.0096 2.0948-1.1166 0.1688-0.10701 0.62916-0.33966 1.023-0.51701 0.85073-0.38307 1.8205-0.91053 2.536-1.3793 0.61785-0.40484 0.94314-0.43393 0.93992-0.0841-2e-3 0.14066-1.8166 1.1871-4.0341 2.3254-3.6604 1.879-4.0468 2.1279-4.1956 2.7024-0.12929 0.49893-0.32137 0.67619-0.9084 0.83827-0.90394 0.24959-1.1577 0.12229-1.0351-0.5192 0.0763-0.39915 8e-3 -0.48753-0.37662-0.48753-0.79651 0-1.519 0.3704-1.4856 0.76166 0.08288 0.97231-0.0751 1.3117-0.88295 1.8969-0.99088 0.7178-1.6012 0.77652-2.1194 0.2039zm1.7599-0.51932c0.63341-0.32755 1.101-1.1817 0.9138-1.6695-0.21522-0.56084-2.365 0.95716-2.365 1.67 0 0.4075 0.66264 0.40727 1.4512-4.9e-4zm4.2718-1.926c0.16554-0.10469 0.2324-0.25892 0.14858-0.34275-0.08382-0.0838-0.30804 3e-3 -0.49828 0.19348-0.3698 0.36981-0.14843 0.4643 0.3497 0.14927z" fill="#b3b3b3" stroke="#b3b3b3" stroke-width=".2046"/>
 <g fill="none" stroke="#000" stroke-linecap="round" stroke-linejoin="round">
  <g transform="translate(46.695 143.52)" stroke-width=".4252">
   <title>GreggR</title>
   <path d="m35.527 20.957c2.3661-0.8172 6.9303-2.3707 7 0" data-char="GreggR" data-head="EL" data-kana="r" data-key="" data-model="EL7" data-scroll-y="0" data-speed="0.03" data-speed-factor="1" data-tail="EL"/>
  </g>
  <g transform="translate(80.708 153.15)" stroke-width=".4252">
   <g transform="translate(6,10)">
    <title>CharNewline</title>
   </g>
   <g id="model" transform="translate(8.1,13.2)">
    <title>GreggA</title>
    <path d="m0.41354-1.8782c0 1.3846-1.8994 2.3956-2.5077 1.7873-0.29554-0.29554-0.35234-0.64782 0.7871-1.7873" data-char="GreggA" data-head="C" data-kana="a" data-key="" data-model="C4" data-scroll-y="0" data-speed="0.03" data-speed-factor="1" data-tail="C"/>
   </g>
  </g>
  <path d="m87.501 164.47c1.4906-1.2909 3.6694-2.2943 4.6012-2.2943" stroke-width=".425"/>
 </g>
</svg>
