<?xml version="1.0" encoding="UTF-8"?>
<!-- Created with Inkscape (http://www.inkscape.org/) -->
<svg width="210mm" height="297mm" version="1.1" viewBox="0 0 210 297" xmlns="http://www.w3.org/2000/svg">
 <path d="m110.14 152.63c0-0.0908 0.38183-0.58256 0.84853-1.0928 0.46669-0.51027 1.1181-1.2592 1.4475-1.6642 0.32943-0.40501 0.83864-0.98691 1.1316-1.2931l0.5326-0.55668-0.3732-0.73203c-0.58552-1.1485-0.25769-2.1783 1.2099-3.8006 0.67411-0.74516 2.6427-2.2755 2.9271-2.2755 0.0748 0 0.52859-0.18998 1.0082-0.42217s0.92342-0.37083 0.98615-0.30809c0.2035 0.20349-0.11342 0.73026-0.43933 0.73026-0.66147 0-2.7782 1.2409-3.8072 2.232-1.1011 1.0605-1.5804 2.0251-1.509 3.0365 0.0608 0.86052 0.22565 0.99285 0.70014 0.56204 1.0525-0.95564 2.0822-1.4649 2.8336-1.4015 1.3838 0.11676 1.3974 1.0644 0.0308 2.1595-0.50749 0.40671-0.86465 0.50515-1.9289 0.53167l-1.3061 0.0326-0.87444 1.0656c-2.0904 2.5473-3.4181 3.7889-3.4181 3.1965zm6.5257-4.8375c0.58541-0.21966 1.4605-1.0323 1.4605-1.3563 0-0.2935-0.57921-0.4417-1.1639-0.2978-0.70766 0.17418-1.4012 0.63638-1.6486 1.0988-0.3877 0.72441 0.22772 0.97718 1.352 0.55532z" fill="#ccc" stroke-width=".19965"/>
 <g fill="none" stroke="#000" stroke-linecap="round" stroke-linejoin="round">
  <g stroke-width=".37402">
   <g>
    <title>CharNewline</title>
   </g>
   <g id="model">
    <title>GreggA</title>
    <path d="m118.42 147.3c1.307 0.723 4.878-0.763 3.449-1.864-0.979-0.754-2.833 0.796-3.449 1.864" data-char="GreggA" data-head="C" data-kana="a" data-key="" data-model="C4" data-scroll-y="0" data-speed="0.03" data-speed-factor="1" data-tail="C"/>
   </g>
  </g>
  <g transform="translate(19.126 24.325)" stroke-width=".4252">
   <g transform="translate(6,10)">
    <title>CharNewline</title>
   </g>
   <g transform="translate(-1.4019 14.356)">
    <title>GreggCh</title>
    <path d="m96.841 109.18-3.5 6.0622" data-char="GreggCh" data-head="SW" data-kana="ch" data-key="" data-model="SW7" data-scroll-y="0" data-speed="0.03" data-speed-factor="1" data-tail="SW"/>
   </g>
  </g>
  <g transform="translate(6.5516 -16.509)" stroke-width=".2126">
   <g>
    <title>CharNewline</title>
   </g>
   <g>
    <title>GreggR</title>
    <path d="m111.51 158.3c-1.89 1.64-5.518 4.816-3.5 6.062" stroke-width=".425" data-char="GreggR" data-head="EL" data-kana="r" data-key="" data-model="EL7" data-scroll-y="0" data-speed="0.03" data-speed-factor="1" data-tail="EL"/>
   </g>
  </g>
 </g>
</svg>
