<?xml version="1.0" encoding="UTF-8"?>
<!-- Created with Inkscape (http://www.inkscape.org/) -->
<svg width="210mm" height="297mm" version="1.1" viewBox="0 0 210 297" xmlns="http://www.w3.org/2000/svg">
 <path d="m95.073 152.48c-0.48804-0.13133-1.2973-0.54313-1.4325-0.72897-0.19518-0.26823 0.04108-0.93851 0.33077-0.93851 0.14181 0 0.31394 0.22352 0.3825 0.49671 0.09296 0.37055 0.30516 0.53057 0.83529 0.63002 0.84586 0.15869 3.5304-0.0645 3.9471-0.32816 0.2466-0.15601 0.23964-0.1862-0.04347-0.18879-0.42119-4e-3 -0.57518-0.39811-0.33666-0.8619 0.22681-0.44102 1.544-1.1236 2.794-1.4478 0.78811-0.20443 1.0239-0.197 1.3864 0.0437 0.51161 0.33969 0.55714 0.69792 0.13342 1.0496-0.41631 0.34551-0.38265 0.68226 0.0505 0.50578 0.79022-0.3219 5.5451-1.2888 5.8197-1.1834 0.4806 0.18442 0.15352 0.4307-0.76507 0.57604-0.47212 0.0747-1.4044 0.27433-2.0718 0.44362-0.66735 0.16928-2.0779 0.47037-3.1345 0.66909-1.0566 0.19872-2.5582 0.54839-3.3367 0.77705-1.3263 0.38951-3.8985 0.66373-4.5589 0.486zm6.834-1.9108c0.71564-0.43156 0.87634-0.97003 0.28949-0.97003-0.66801 0-2.4102 0.60225-2.679 0.92607-0.64594 0.77832 1.1179 0.81076 2.3895 0.044z" fill="#ccc" stroke-width=".20223"/>
 <g fill="none" stroke="#000" stroke-linecap="round" stroke-linejoin="round">
  <g stroke-width=".4087">
   <g>
    <title>CharNewline</title>
   </g>
   <g id="model">
    <title>GreggA</title>
    <path d="m101.44 145.64c1.161-0.403 2.226-1.12 1.669-1.666-0.652-0.639-3.9559 0.477-3.6095 1.285 0.2418 0.564 1.3535 0.381 1.9405 0.381" data-char="GreggA" data-head="C" data-kana="a" data-key="" data-model="C4" data-scroll-y="0" data-speed="0.03" data-speed-factor="1" data-tail="C"/>
   </g>
  </g>
  <g transform="translate(96.576 131.31)" stroke-width=".4252">
   <g transform="translate(6,10)">
    <title>CharNewline</title>
   </g>
   <g transform="translate(5,15)">
    <title>GreggN</title>
    <path d="m0 0h4" data-char="GreggN" data-head="E" data-kana="n" data-key="" data-model="E4" data-scroll-y="0" data-speed="0.03" data-speed-factor="1" data-tail="E"/>
   </g>
  </g>
  <g transform="translate(89.576 131.91)" stroke-width=".4252">
   <g transform="translate(6,10)">
    <title>CharNewline</title>
   </g>
   <g transform="translate(5,14.4)">
    <title>GreggR</title>
    <path d="m0 0c0.069725 2.3707 4.634 0.81718 7 0" data-char="GreggR" data-head="EL" data-kana="r" data-key="" data-model="EL7" data-scroll-y="0" data-speed="0.03" data-speed-factor="1" data-tail="EL"/>
   </g>
  </g>
 </g>
</svg>
