<?xml version="1.0" encoding="UTF-8"?>
<!-- Created with Inkscape (http://www.inkscape.org/) -->
<svg width="210mm" height="297mm" version="1.1" viewBox="0 0 210 297" xmlns="http://www.w3.org/2000/svg">
 <path d="m103.77 151.36c-0.53873-0.76914-0.39397-2.1221 0.36125-3.3763l0.6704-1.1133-1.0328 0.10659c-1.2016 0.12403-3.2415-0.38689-3.4219-0.85708-0.22012-0.57361 0.25768-0.74111 0.86036-0.30162 0.40975 0.2988 1.0112 0.44856 2.1834 0.54362 1.5956 0.1294 1.6339 0.12165 2.7803-0.56261 2.6394-1.5754 4.0124-2.0183 5.4817-1.7683 0.0819 0.0139 0.14895 0.19678 0.14895 0.40632 0 0.71817-2.5299 1.8182-4.8476 2.1077-0.93719 0.1171-1.2053 0.24819-1.7302 0.84602-0.34163 0.3891-0.74401 1.0015-0.89419 1.3609-0.3619 0.86617-0.35011 2.1424 0.0227 2.4517 0.29443 0.24436 0.23676 0.59758-0.0976 0.59758-0.0966 0-0.31471-0.19861-0.48474-0.44137zm4.8548-5.6914c1.5286-0.44266 2.3824-0.81838 2.3824-1.0484 0-0.2395-0.87942-0.20533-1.5297 0.0595-3.1328 1.2755-3.5623 1.7736-0.85272 0.98894z" fill="#ccc" stroke-width=".19859"/>
 <g fill="none" stroke="#000" stroke-linecap="round" stroke-linejoin="round">
  <g transform="translate(1.1334 .1034)" stroke-width=".42086">
   <g>
    <title>CharNewline</title>
   </g>
   <g id="model">
    <title>GreggA</title>
    <path d="m104.85 146.36c0.94066-0.3221 5.1313-1.4856 4.6855-2.3612-0.75979-1.4923-3.9445 1.9332-4.6855 2.3612" data-char="GreggA" data-head="C" data-kana="a" data-key="" data-model="C4" data-scroll-y="0" data-speed="0.03" data-speed-factor="1" data-tail="C"/>
   </g>
  </g>
  <g transform="translate(-3.7913 -8.4303)" stroke-width=".2126">
   <g>
    <title>CharNewline</title>
   </g>
   <g transform="translate(-1.743 -3.4063)">
    <title>GreggR</title>
    <path d="m111.51 158.3c-1.89 1.64-5.518 4.816-3.5 6.062" stroke-width=".425" data-char="GreggR" data-head="EL" data-kana="r" data-key="" data-model="EL7" data-scroll-y="0" data-speed="0.03" data-speed-factor="1" data-tail="EL"/>
   </g>
  </g>
  <g transform="translate(93.98 132.07)" stroke-width=".4252">
   <g transform="translate(6,10)">
    <title>CharNewline</title>
   </g>
   <g transform="translate(5,14.4)">
    <title>GreggR</title>
    <path d="m0 0c0.069725 2.3707 4.634 0.81718 7 0" data-char="GreggR" data-head="EL" data-kana="r" data-key="" data-model="EL7" data-scroll-y="0" data-speed="0.03" data-speed-factor="1" data-tail="EL"/>
   </g>
  </g>
 </g>
</svg>
