<?xml version="1.0" encoding="UTF-8"?>
<!-- Created with Inkscape (http://www.inkscape.org/) -->
<svg width="210mm" height="297mm" version="1.1" viewBox="0 0 210 297" xmlns="http://www.w3.org/2000/svg">
 <path d="m98.41 145.73c-0.13526-0.0836-0.19063-0.2073-0.12305-0.27488 0.2103-0.21031 1.8564-0.20917 1.9616 9.4e-4 0.12228 0.24456-1.4959 0.4853-1.8386 0.27352zm1.7269-1.7582c-0.33592-0.0804-1.0248-0.35298-1.5309-0.60573-0.7888-0.39395-1.129-0.44498-2.3836-0.35758-0.80492 0.0561-1.8677 0.25397-2.3618 0.43977-1.5034 0.56536-1.597 0.58039-1.597 0.2562 0-0.33729 0.25525-0.4642 1.6968-0.84361 1.5641-0.41166 3.1203-0.54444 4.0096-0.3421 0.61104 0.13902 0.9085 0.11763 1.186-0.0853 0.48263-0.35291 1.3151-0.34532 1.803 0.0164 0.33074 0.2452 0.3507 0.34755 0.13627 0.6987-0.24237 0.39691-0.21072 0.4114 0.8984 0.4114 1.2518 0 3.5359-0.41973 4.1905-0.77004 0.31181-0.16687 0.46295-0.1565 0.62863 0.0431 0.27415 0.33033-0.38483 0.72202-1.3862 0.82396-0.37754 0.0385-1.3602 0.16429-2.1836 0.27969-1.6944 0.23745-2.2352 0.24355-3.1061 0.0351zm0.39823-0.98975c0.0607-0.0983-0.0238-0.23022-0.18785-0.29318-0.35444-0.13601-0.89715 0.0416-0.89715 0.29362 0 0.23247 0.94128 0.23208 1.085-4.4e-4z" fill="#ccc" stroke="#ccc" stroke-width=".19963"/>
 <g fill="none" stroke="#000" stroke-linecap="round" stroke-linejoin="round">
  <g transform="translate(96.027 127.64)" stroke-width=".4252">
   <g transform="translate(6,10)">
    <title>CharNewline</title>
   </g>
   <g id="model">
    <title>GreggE</title>
    <path d="m-1.3659 22.086c0 0.8198 1.4756 1.132 1.4756-0.0401 0-1.0526-1.4756-1.174-1.4756 0.0401z" data-char="GreggE" data-head="C" data-kana="e" data-key="" data-model="C1" data-scroll-y="0" data-speed="0.03" data-speed-factor="1" data-tail="C"/>
   </g>
  </g>
  <g transform="translate(57.059 122.26)">
   <g stroke="#000" stroke-width=".4252">
    <title>GreggR</title>
    <path d="m35.527 20.957c2.3661-0.8172 6.9303-2.3707 7 0" data-char="GreggR" data-head="EL" data-kana="r" data-key="" data-model="EL7" data-scroll-y="0" data-speed="0.03" data-speed-factor="1" data-tail="EL"/>
   </g>
  </g>
  <g transform="translate(94.586 128.82)" stroke-width=".4252">
   <g transform="translate(6,10)">
    <title>CharNewline</title>
   </g>
   <g transform="translate(5.0424 15.729)">
    <title>GreggR</title>
    <path d="m-0.042435-1.3294c0.069725 2.3707 4.634 0.81718 7 0" data-char="GreggR" data-head="EL" data-kana="r" data-key="" data-model="EL7" data-scroll-y="0" data-speed="0.03" data-speed-factor="1" data-tail="EL"/>
   </g>
  </g>
 </g>
</svg>
