<?xml version="1.0" encoding="UTF-8"?>
<!-- Created with Inkscape (http://www.inkscape.org/) -->
<svg width="210mm" height="297mm" version="1.1" viewBox="0 0 210 297" xmlns="http://www.w3.org/2000/svg">
 <path d="m103.51 152.58c-0.32953-0.40121-0.49979-0.42864-2.4809-0.39963-1.1699 0.0172-2.4453 0.0478-2.8342 0.0681-2.6536 0.13874-4.8413 0.092-4.8319-0.1032 0.01444-0.301 0.50471-0.37523 2.1316-0.32276 0.77472 0.0249 2.589 0.0153 4.0317-0.0215 6.6637-0.17001 6.7594-0.16612 6.7383 0.2741-0.0123 0.25657-0.26926 0.50369-0.7186 0.6911-0.94267 0.39316-1.6104 0.33209-2.0361-0.18618z" fill="#ccc" stroke-width=".2013"/>
 <g fill="none" stroke="#000" stroke-linecap="round" stroke-linejoin="round" stroke-width=".4252">
  <g transform="translate(94.171 140.86)">
   <g transform="translate(6,10)">
    <title>CharNewline</title>
   </g>
   <g id="model" transform="translate(6,14.4)">
    <title>GreggE</title>
    <path d="m-0.41127-2.2832c1.5857-0.014913 2.2317-0.061201 1.9371 0.44908-0.4491 0.77786-1.9371 0.53583-1.9371-0.44908" data-char="GreggE" data-head="C" data-kana="e" data-key="" data-model="C1" data-scroll-y="0" data-speed="0.03" data-speed-factor="1" data-tail="C"/>
   </g>
  </g>
  <g transform="translate(88.604 136.87)">
   <g transform="translate(6,10)">
    <title>CharNewline</title>
   </g>
   <g transform="translate(5,15)">
    <title>GreggM</title>
    <path d="m0 0h10" data-char="GreggM" data-head="E" data-kana="m" data-key="" data-model="E10" data-scroll-y="0" data-speed="0.03" data-speed-factor="1" data-tail="E"/>
   </g>
  </g>
  <g transform="translate(104.02 135.7)">
   <g transform="translate(6,10)">
    <title>CharNewline</title>
   </g>
   <g transform="translate(6,14.4)">
    <title>GreggE</title>
   </g>
  </g>
  <path d="m109 150.41c0 0.52718-0.49247 0.8309-1.0424 0.7651-0.44328-0.0531-0.59929-0.75873 0.22056-0.7651"/>
 </g>
</svg>
