<?xml version="1.0" encoding="UTF-8"?>
<!-- Created with Inkscape (http://www.inkscape.org/) -->
<svg width="210mm" height="297mm" version="1.1" viewBox="0 0 210 297" xmlns="http://www.w3.org/2000/svg">
 <path d="m93.038 141.35c0.30511 0.12584 0.93477-0.10368 1.5738-0.57359 0.40199-0.29561 1.0068-0.68257 1.3439-0.85988 0.52631-0.27675 0.63802-0.27521 0.78951 0.0109 0.28675 0.54161 1.066 0.41157 1.496-0.24962 0.399-0.61358 0.46837-1.0935 0.17552-1.2142-0.24652-0.10162-1.8868 0.61413-3.0883 1.3476-0.50509 0.30838-1.2292 0.72528-1.6091 0.92646-0.67611 0.35805-0.87171 0.53383-0.68135 0.61235zm4.5808-2.332c0.38873-0.0637 0.48226 0.29498 0.14851 0.56947-0.17205 0.1415-0.36624 0.18336-0.43155 0.0931-0.156-0.21572 0.01619-0.61877 0.28303-0.6625z" fill="#b3b3b3" stroke-width=".1815"/>
 <g transform="translate(88.038 125.35)" fill="none" stroke="#000" stroke-linecap="round" stroke-linejoin="round" stroke-width=".4252">
  <g transform="translate(6,10)">
   <title>CharNewline</title>
  </g>
  <g transform="translate(5,16)">
   <title>GreggT</title>
   <path d="m0 0 3.4641-2" data-char="GreggT" data-head="NE" data-kana="t" data-key="" data-model="NE4" data-scroll-y="0" data-speed="0.03" data-speed-factor="1" data-tail="NE"/>
  </g>
 </g>
 <g transform="translate(94.757 124.18)" fill="none" stroke="#000" stroke-linecap="round" stroke-linejoin="round" stroke-width=".4252">
  <g transform="translate(6,10)">
   <title>CharNewline</title>
  </g>
  <g id="model" transform="translate(6,14.4)">
   <title>GreggE</title>
   <path d="m-4.257 2.2478c0.48432-0.27893 1.3081-0.82358 1.5453-0.43778 0.62006 1.0083-1.221 1.4955-1.5453 0.43778" data-char="GreggE" data-head="C" data-kana="e" data-key="" data-model="C1" data-scroll-y="0" data-speed="0.03" data-speed-factor="1" data-tail="C"/>
  </g>
 </g>
</svg>
