<?xml version="1.0" encoding="UTF-8"?>
<!-- Created with Inkscape (http://www.inkscape.org/) -->
<svg width="210mm" height="297mm" version="1.1" viewBox="0 0 210 297" xml:space="preserve" xmlns="http://www.w3.org/2000/svg"><g fill="none" stroke="#000" stroke-linecap="round" stroke-linejoin="round"><g transform="translate(-5.8813 21.131)" stroke-width=".4252"><g transform="translate(6,10)"><title>CharNewline</title></g><g transform="translate(9,12.1)"><title>GreggCh</title><path d="m96.841 109.18-3.5 6.0622" data-char="GreggCh" data-head="SW" data-kana="ch" data-key="" data-model="SW7" data-scroll-y="0" data-speed="0.03" data-speed-factor="1" data-tail="SW"/></g></g><g transform="matrix(.5 -.86603 -.86603 -.5 104.91 160.77)" stroke-width=".4252"><g transform="translate(5.1634 12.456)"><path d="m0.48538 1.4534c6e-8 -1.2198-2.1295-0.28011-3-1.9e-6" data-char="GreggSL" data-head="SWL" data-kana="s" data-key="" data-model="SWL3" data-scroll-y="0" data-speed="0.03" data-speed-factor="1" data-tail="SWL"/></g><g transform="translate(5.3,11.298)"><title>CharSpace</title></g><g transform="translate(12.8,10)"><title>CharNewline</title></g></g><g transform="matrix(.25882 -.96593 -.96593 -.25882 107.1 158.55)" stroke-width=".4252"><g transform="translate(6,10)"><title>CharNewline</title></g><g id="model" transform="matrix(.70758 0 0 .70758 7.7163 12.792)"><title>GreggA</title><path d="m-1.0414 0.12877c-1.5351 0.4114-1.9495 0.89174-2.1854 1.7724-0.24372 0.90959-0.13989 1.7872 0.7494 1.7872 0.6091 1e-7 1.7766-1.3191 2.0188-2.2232 0.19004-0.70924-0.59808-1.3291-1.483-0.44407" stroke-width=".60064" data-char="GreggA" data-head="C" data-kana="a" data-key="" data-model="C4" data-scroll-y="0" data-speed="0.03" data-speed-factor="1" data-tail="C"/></g></g></g></svg>
