<?xml version="1.0" encoding="UTF-8"?>
<!-- Created with Inkscape (http://www.inkscape.org/) -->
<svg width="210mm" height="297mm" version="1.1" viewBox="0 0 210 297" xml:space="preserve" xmlns="http://www.w3.org/2000/svg"><g fill="none" stroke="#000" stroke-linecap="round" stroke-linejoin="round"><g transform="matrix(.25882 -.96593 -.96593 -.25882 102.16 152.51)" stroke-width=".4252"><g transform="translate(6,10)"><title>CharNewline</title></g><g id="model" transform="matrix(.70758 0 0 .70758 7.7163 12.792)"><title>GreggA</title><path d="m-1.0414 0.12877c-0.91331 0.24476-1.9714 0.88586-2.2073 1.7665-0.24372 0.90959 0.033741 1.8337 0.92303 1.8337 0.6091 1e-7 1.86-1.2968 2.1022-2.2009 0.19004-0.70924-0.42353-1.2823-1.3085-0.3973" stroke-width=".60064" data-char="GreggA" data-head="C" data-kana="a" data-key="" data-model="C4" data-scroll-y="0" data-speed="0.03" data-speed-factor="1" data-tail="C"/></g></g><g transform="translate(-10.823 15.098)" stroke-width=".4252"><g transform="translate(6,10)"><title>CharNewline</title></g><g transform="translate(9,12.1)"><title>GreggCh</title><path d="m96.841 109.18-3.5 6.0622" data-char="GreggCh" data-head="SW" data-kana="ch" data-key="" data-model="SW7" data-scroll-y="0" data-speed="0.03" data-speed-factor="1" data-tail="SW"/></g></g><g transform="translate(55.217 121.63)" stroke-width=".4252"><title>GreggR</title><path d="m35.527 20.957c2.3661-0.8172 6.9303-2.3707 7 0" data-char="GreggR" data-head="EL" data-kana="r" data-key="" data-model="EL7" data-scroll-y="0" data-speed="0.03" data-speed-factor="1" data-tail="EL"/></g></g></svg>
