<?xml version="1.0" encoding="UTF-8"?>
<!-- Created with Inkscape (http://www.inkscape.org/) -->
<svg width="210mm" height="297mm" version="1.1" viewBox="0 0 210 297" xml:space="preserve" xmlns="http://www.w3.org/2000/svg"><g fill="none" stroke="#000" stroke-linecap="round" stroke-linejoin="round"><g transform="translate(-6.7238 59.138)" stroke-width=".4252"><g transform="translate(6,10)"><title>CharNewline</title></g><g transform="translate(9,12.1)"><title>GreggCh</title><path d="m96.841 109.18-3.5 6.0622" data-char="GreggCh" data-head="SW" data-kana="ch" data-key="" data-model="SW7" data-scroll-y="0" data-speed="0.03" data-speed-factor="1" data-tail="SW"/></g></g><g transform="translate(-15.507 28.627)" stroke-width=".2126"><g><title>CharNewline</title></g><g><title>GreggR</title><path d="m111.51 158.3c-1.89 1.64-5.518 4.816-3.5 6.062" stroke-width=".425" data-char="GreggR" data-head="EL" data-kana="r" data-key="" data-model="EL7" data-scroll-y="0" data-speed="0.03" data-speed-factor="1" data-tail="EL"/></g></g><g transform="rotate(-30 181.34 150.17)" stroke-width=".4252"><g transform="translate(82.395,127.64)"><g transform="translate(6,10)"><title>CharNewline</title></g><g id="model" transform="translate(8.1,13.2)"><title>GreggA</title><path d="m-1.5491-2.0868c-1.1956 0.49804-0.84393 1.6134-0.16679 1.7949 1.2655 0.33909 2.4161-0.75642 1.8136-1.359-0.53648-0.53648-2.1552-0.92542-1.5345 0.14971"/></g></g><g transform="rotate(180,48.54,79.775)"><g transform="translate(6,10)"><title>CharNewline</title></g><g transform="translate(5,15.7)"><title>GreggK</title></g></g><g transform="translate(80.064,127.64)"><g transform="translate(6,10)"><title>CharNewline</title></g><g transform="translate(5,14.4)"><title>GreggR</title></g></g></g><g transform="translate(59.05 161.82)"><g stroke="#000" stroke-width=".4252"><title>GreggR</title></g></g></g></svg>
