<?xml version="1.0" encoding="UTF-8"?>
<!-- Created with Inkscape (http://www.inkscape.org/) -->
<svg width="210mm" height="297mm" version="1.1" viewBox="0 0 210 297" xml:space="preserve" xmlns="http://www.w3.org/2000/svg"><g fill="none" stroke="#000" stroke-linecap="round" stroke-linejoin="round"><g transform="matrix(.5 -.86603 -.86603 -.5 164.17 294.92)" stroke-width=".4252"><g transform="translate(82.395,127.64)"><g transform="translate(6,10)"><title>CharNewline</title></g><g id="model" transform="translate(8.1,13.2)"><title>GreggA</title><path d="m-1.5491-2.0868c-1.2279 0.47305-1.2362 1.5736-0.58291 1.7487 0.7491 0.2007 1.5718-0.27287 1.8704-0.79008 0.17777-0.30792 0.49833-1.2744-1.0388-0.86257"/></g></g><g transform="rotate(180,48.54,79.775)"><g transform="translate(6,10)"><title>CharNewline</title></g><g transform="translate(5,15.7)"><title>GreggK</title></g></g><g transform="translate(80.064,127.64)"><g transform="translate(6,10)"><title>CharNewline</title></g><g transform="translate(5,14.4)"><title>GreggR</title></g></g></g><g transform="matrix(.5 -.86603 -.86603 -.5 88.852 189.75)"><g stroke="#000" stroke-width=".4252"><title>GreggR</title></g></g><g transform="matrix(.5 -.86603 -.86603 -.5 88.864 189.76)"><g stroke="#000" stroke-width=".4252"><title>GreggR</title><path d="m35.527 20.957c2.3661-0.8172 6.9303-2.3707 7 0" data-char="GreggR" data-head="EL" data-kana="r" data-key="" data-model="EL7" data-scroll-y="0" data-speed="0.03" data-speed-factor="1" data-tail="EL"/></g></g><g transform="translate(83.519 132.26)" stroke-width=".4252"><g transform="translate(6,10)"><title>CharNewline</title></g><g transform="translate(5,16)"><title>GreggT</title><path d="m0 0 3.4641-2" data-char="GreggT" data-head="NE" data-kana="t" data-key="" data-model="NE4" data-scroll-y="0" data-speed="0.03" data-speed-factor="1" data-tail="NE"/></g></g></g></svg>
