<?xml version="1.0" encoding="UTF-8"?>
<!-- Created with Inkscape (http://www.inkscape.org/) -->
<svg width="210mm" height="297mm" version="1.1" viewBox="0 0 210 297" xml:space="preserve" xmlns="http://www.w3.org/2000/svg"><g transform="matrix(-1 -.0020786 -.0020786 1 84.708 132.91)" fill="none" stroke="#000" stroke-linecap="round" stroke-linejoin="round" stroke-width=".4252"><g transform="translate(6,10)"><title>CharNewline</title></g><g id="model" transform="translate(8.1,13.2)"><title>GreggA</title><path d="m-2.1513-1.7694c-0.0027 1.3 1.3934 2.1121 2.3794 1.8479 0.80956-0.21692 0.72894-0.66677 0.23485-1.1609-0.48623-0.48623-1.1607-0.57981-1.7141-0.58096-0.37793-7.856e-4 -0.76154 0.42046-0.12962 0.78705" data-char="GreggA" data-head="C" data-kana="a" data-key="" data-model="C4" data-scroll-y="0" data-speed="0.03" data-speed-factor="1" data-tail="C"/></g></g><g id="tail" transform="matrix(.5 -.86603 -.86603 -.5 164.47 310.5)"><path d="m101.04 157.33c1.2901 0.74485 4.5869-0.36499 6.4609-1.0122" fill="none" stroke="#000" stroke-linecap="round" stroke-linejoin="round" stroke-width=".4252"/></g><g transform="translate(53.434 121.22)" fill="none" stroke="#000" stroke-linecap="round" stroke-linejoin="round"><g stroke="#000" stroke-width=".4252"><title>GreggR</title></g></g><g transform="translate(42.436 124.26)" fill="none" stroke="#000" stroke-linecap="round" stroke-linejoin="round"><g stroke="#000" stroke-width=".4252"><title>GreggR</title><path d="m35.527 20.957c2.3661-0.8172 6.9303-2.3707 7 0" data-char="GreggR" data-head="EL" data-kana="r" data-key="" data-model="EL7" data-scroll-y="0" data-speed="0.03" data-speed-factor="1" data-tail="EL"/></g></g></svg>
