<?xml version="1.0" encoding="UTF-8" standalone="no"?>
<!-- Created with Inkscape (http://www.inkscape.org/) -->

<svg
   width="210mm"
   height="297mm"
   viewBox="0 0 210 297"
   version="1.1"
   id="svg5"
   sodipodi:docname="af.svg"
   inkscape:version="1.1 (ce6663b3b7, 2021-05-25)"
   xmlns:inkscape="http://www.inkscape.org/namespaces/inkscape"
   xmlns:sodipodi="http://sodipodi.sourceforge.net/DTD/sodipodi-0.dtd"
   xmlns="http://www.w3.org/2000/svg"
   xmlns:svg="http://www.w3.org/2000/svg">
  <sodipodi:namedview
     id="namedview7"
     pagecolor="#ffffff"
     bordercolor="#666666"
     borderopacity="1.0"
     inkscape:pageshadow="2"
     inkscape:pageopacity="0.0"
     inkscape:pagecheckerboard="0"
     inkscape:document-units="mm"
     showgrid="false"
     inkscape:zoom="21.447795"
     inkscape:cx="407.29129"
     inkscape:cy="542.01377"
     inkscape:window-width="1366"
     inkscape:window-height="713"
     inkscape:window-x="0"
     inkscape:window-y="27"
     inkscape:window-maximized="1"
     inkscape:current-layer="layer1" />
  <defs
     id="defs2" />
  <g
     inkscape:label="Layer 1"
     inkscape:groupmode="layer"
     id="layer1">
    <path
       style="fill:#cccccc;stroke-width:0.25002"
       d="m 104.80448,149.92462 c 0.085,-0.13751 0.30085,-0.25001 0.4797,-0.25001 0.17884,0 1.07228,-0.70428 1.98541,-1.56507 1.5825,-1.49179 2.08497,-2.43526 1.29697,-2.43526 -1.16858,0 -2.13295,-1.16404 -1.36009,-1.64169 0.1856,-0.11472 0.22211,9.4e-4 0.1108,0.35194 -0.1318,0.41526 -0.0384,0.55506 0.45348,0.67851 1.03025,0.25857 1.52723,0.0414 1.61335,-0.70493 0.0932,-0.80781 -0.41567,-1.10609 -1.1848,-0.69445 -0.28655,0.15335 -0.51958,0.17398 -0.51958,0.046 0,-0.54609 1.70692,-0.72883 2.20018,-0.23557 0.73597,0.73597 0.0326,2.99072 -1.41322,4.53014 -0.90028,0.95857 -2.76783,2.17042 -3.34479,2.17042 -0.25956,0 -0.4024,-0.11252 -0.31741,-0.25003 z"
       id="path619" />
    <path
       d="m 110.53632,141.52139 c 2.05395,1.18584 -1.60927,4.42171 -3.5,6.06217"
       id="path25832"
       style="fill:none;stroke:#000000;stroke-width:0.425197;stroke-linecap:round;stroke-linejoin:round;stroke-miterlimit:4;stroke-opacity:1" />
    <path
       d="m 108.31232,144.33634 c -2.60817,-0.73857 -1.40441,-3.05582 -0.0994,-2.32966"
       id="path21845"
       style="fill:none;stroke:#000000;stroke-width:0.425197;stroke-linecap:round;stroke-linejoin:round;stroke-miterlimit:4;stroke-opacity:1" />
    <g
       style="fill:none;stroke:#000000;stroke-linecap:round;stroke-linejoin:round;stroke-miterlimit:4;stroke-opacity:1"
       id="g21881"
       transform="translate(99.079094,132.61774)">
      <g
         style="stroke:#000000;stroke-width:0.425197"
         transform="translate(6,10)"
         id="g21863">
        <title
           id="title21861">CharNewline</title>
      </g>
      <g
         style="stroke:#000000;stroke-width:0.425197"
         transform="translate(5,14.4)"
         id="g21869">
        <title
           id="title21865">GreggR</title>
      </g>
    </g>
  </g>
</svg>
