<?xml version="1.0" encoding="UTF-8" standalone="no"?>
<!-- Created with Inkscape (http://www.inkscape.org/) -->

<svg
   width="210mm"
   height="297mm"
   viewBox="0 0 210 297"
   version="1.1"
   id="svg5"
   sodipodi:docname="an.svg"
   inkscape:version="1.1 (ce6663b3b7, 2021-05-25)"
   xmlns:inkscape="http://www.inkscape.org/namespaces/inkscape"
   xmlns:sodipodi="http://sodipodi.sourceforge.net/DTD/sodipodi-0.dtd"
   xmlns="http://www.w3.org/2000/svg"
   xmlns:svg="http://www.w3.org/2000/svg">
  <sodipodi:namedview
     id="namedview7"
     pagecolor="#ffffff"
     bordercolor="#666666"
     borderopacity="1.0"
     inkscape:pageshadow="2"
     inkscape:pageopacity="0.0"
     inkscape:pagecheckerboard="0"
     inkscape:document-units="mm"
     showgrid="false"
     inkscape:zoom="22.495995"
     inkscape:cx="384.97964"
     inkscape:cy="554.67651"
     inkscape:window-width="1366"
     inkscape:window-height="713"
     inkscape:window-x="0"
     inkscape:window-y="27"
     inkscape:window-maximized="1"
     inkscape:current-layer="g109" />
  <defs
     id="defs2" />
  <g
     inkscape:label="Layer 1"
     inkscape:groupmode="layer"
     id="layer1">
    <path
       style="fill:#e6e6e6;stroke-width:0.129539"
       d="m 99.747589,145.85984 c -0.8277,0.48039 -0.24771,1.06235 1.196641,1.20068 0.51648,0.0495 1.05347,0.0257 1.26852,-0.0561 0.32626,-0.12415 0.36475,-0.19695 0.30762,-0.58171 l -0.0653,-0.4398 0.55526,-0.009 c 0.30539,-0.005 0.76454,0.0114 1.02032,0.0363 1.04096,0.10108 1.68517,0.0953 1.89826,-0.0168 0.36329,-0.19133 -0.0312,-0.28198 -1.07194,-0.24625 -1.70335,0.0585 -3.0137,0.0602 -3.41846,0.004 -0.66488,-0.0917 -1.43068,-0.0426 -1.690921,0.10842 z m 2.313341,0.24074 c 0.23529,0.17446 0.20115,0.53771 -0.0647,0.68771 -0.2722,0.15361 -1.5996,0.0382 -1.95181,-0.1697 -0.199871,-0.11798 -0.285981,-0.25167 -0.236381,-0.36699 0.10522,-0.24465 1.958931,-0.36891 2.252821,-0.15102 z"
       id="path951" />
    <g
       style="fill:none;stroke:#000000;stroke-linecap:round;stroke-linejoin:round;stroke-miterlimit:4;stroke-opacity:1"
       id="g121">
      <g
         style="stroke:#000000;stroke-width:0.425197"
         id="g103">
        <title
           id="title101">CharNewline</title>
      </g>
      <g
         style="stroke:#000000;stroke-width:0.425197"
         id="g109">
        <title
           id="title105">GreggA</title>
        <path
           d="m 103.19031,147.126 c 0,1.508 -2.007,1.603 -2.9062,1.03 -0.340402,-0.218 -0.558602,-1.03 1.9472,-1.03"
           data-char="GreggA"
           data-head="C"
           data-tail="C"
           data-kana="a"
           data-model="C4"
           data-key=""
           data-speed-factor="1"
           data-scroll-y="0"
           data-speed="0.03"
           id="path107" />
      </g>
    </g>
    <g
       style="fill:none;stroke:#000000;stroke-linecap:round;stroke-linejoin:round;stroke-miterlimit:4;stroke-opacity:1"
       id="g143"
       transform="translate(96.73685,130.87924)">
      <g
         style="stroke:#000000;stroke-width:0.425197"
         transform="translate(6,10)"
         id="g125">
        <title
           id="title123">CharNewline</title>
      </g>
      <g
         style="stroke:#000000;stroke-width:0.425197"
         transform="translate(5,15)"
         id="g131">
        <title
           id="title127">GreggN</title>
        <path
           d="m 0,0 h 4"
           data-char="GreggN"
           data-head="E"
           data-tail="E"
           data-kana="n"
           data-model="E4"
           data-key=""
           data-speed-factor="1"
           data-scroll-y="0"
           data-speed="0.03"
           id="path129" />
      </g>
    </g>
  </g>
</svg>
