<?xml version="1.0" encoding="UTF-8" standalone="no"?>
<!-- Created with Inkscape (http://www.inkscape.org/) -->

<svg
   width="210mm"
   height="297mm"
   viewBox="0 0 210 297"
   version="1.1"
   id="svg1823"
   inkscape:version="1.1 (ce6663b3b7, 2021-05-25)"
   sodipodi:docname="en.svg"
   xmlns:inkscape="http://www.inkscape.org/namespaces/inkscape"
   xmlns:sodipodi="http://sodipodi.sourceforge.net/DTD/sodipodi-0.dtd"
   xmlns="http://www.w3.org/2000/svg"
   xmlns:svg="http://www.w3.org/2000/svg">
  <sodipodi:namedview
     id="namedview1825"
     pagecolor="#ffffff"
     bordercolor="#666666"
     borderopacity="1.0"
     inkscape:pageshadow="2"
     inkscape:pageopacity="0.0"
     inkscape:pagecheckerboard="0"
     inkscape:document-units="mm"
     showgrid="false"
     inkscape:zoom="31.814141"
     inkscape:cx="389.55947"
     inkscape:cy="557.58223"
     inkscape:window-width="1366"
     inkscape:window-height="713"
     inkscape:window-x="0"
     inkscape:window-y="27"
     inkscape:window-maximized="1"
     inkscape:current-layer="layer1" />
  <defs
     id="defs1820" />
  <g
     inkscape:label="Layer 1"
     inkscape:groupmode="layer"
     id="layer1">
    <path
       style="fill:#cccccc;stroke-width:0.107069"
       d="m 101.61582,147.06791 c -0.19531,-0.0788 -0.16371,-0.32749 0.0715,-0.56269 0.12923,-0.12923 0.43678,-0.23345 0.82978,-0.28119 0.34345,-0.0417 0.7172,-0.0927 0.83056,-0.11333 0.78793,-0.14329 1.9025,-0.2565 1.99041,-0.20217 0.22515,0.13915 0.0875,0.26705 -0.29605,0.27513 -0.87068,0.0184 -1.85897,0.25908 -2.04264,0.49757 -0.2806,0.36432 -0.96495,0.5556 -1.38356,0.38668 z m 0.99039,-0.35736 0.32121,-0.21273 -0.30148,-5e-4 c -0.34064,-0.001 -0.71568,0.16913 -0.71568,0.32427 0,0.1716 0.3548,0.11509 0.69595,-0.11084 z m 3.07822,-0.77625 c 0.0525,-0.2625 0.93685,-0.40062 0.93685,-0.14632 0,0.15515 -0.31395,0.27621 -0.72271,0.27869 -0.13618,0.001 -0.22927,-0.0567 -0.21414,-0.13237 z"
       id="path2085" />
    <g
       style="fill:none;stroke:#000000;stroke-linecap:round;stroke-linejoin:round;stroke-miterlimit:4;stroke-opacity:1"
       id="g1940"
       transform="translate(96.946921,132.66983)">
      <g
         style="stroke:#000000;stroke-width:0.425197"
         transform="translate(6,10)"
         id="g1922">
        <title
           id="title1920">CharNewline</title>
      </g>
      <g
         style="stroke:#000000;stroke-width:0.425197"
         transform="translate(6,14.4)"
         id="g1928">
        <title
           id="title1924">GreggE</title>
      </g>
    </g>
    <path
       d="m 103.61843,148.23 c 0,0.52718 -0.49247,0.8309 -1.04244,0.7651 -0.44328,-0.0531 -0.59929,-0.75873 0.22056,-0.7651"
       id="path5561"
       style="fill:none;stroke:#000000;stroke-width:0.425197;stroke-linecap:round;stroke-linejoin:round;stroke-miterlimit:4;stroke-opacity:1"
       sodipodi:nodetypes="ccc" />
    <path
       d="m 106.14915,147.49084 -4.08235,0.0318"
       id="path1948"
       style="fill:none;stroke:#000000;stroke-width:0.425197;stroke-linecap:round;stroke-linejoin:round;stroke-miterlimit:4;stroke-opacity:1" />
  </g>
</svg>
