<?xml version="1.0" encoding="UTF-8" standalone="no"?>
<!-- Created with Inkscape (http://www.inkscape.org/) -->

<svg
   width="210mm"
   height="297mm"
   viewBox="0 0 210 297"
   version="1.1"
   id="svg6561"
   sodipodi:docname="fap.svg"
   inkscape:version="1.1 (ce6663b3b7, 2021-05-25)"
   xmlns:inkscape="http://www.inkscape.org/namespaces/inkscape"
   xmlns:sodipodi="http://sodipodi.sourceforge.net/DTD/sodipodi-0.dtd"
   xmlns="http://www.w3.org/2000/svg"
   xmlns:svg="http://www.w3.org/2000/svg">
  <sodipodi:namedview
     id="namedview6563"
     pagecolor="#ffffff"
     bordercolor="#666666"
     borderopacity="1.0"
     inkscape:pageshadow="2"
     inkscape:pageopacity="0.0"
     inkscape:pagecheckerboard="0"
     inkscape:document-units="mm"
     showgrid="false"
     inkscape:zoom="7.9535353"
     inkscape:cx="414.15545"
     inkscape:cy="612.36919"
     inkscape:window-width="1920"
     inkscape:window-height="1052"
     inkscape:window-x="1366"
     inkscape:window-y="0"
     inkscape:window-maximized="1"
     inkscape:current-layer="layer1" />
  <defs
     id="defs6558" />
  <g
     inkscape:label="Layer 1"
     inkscape:groupmode="layer"
     id="layer1">
    <path
       style="fill:#cccccc;stroke-width:0.264583"
       d="m 111.89055,172.74243 c 0.0899,-0.14552 0.32806,-0.26459 0.52916,-0.26459 0.20111,0 0.43923,0.11907 0.52917,0.26459 0.0931,0.15065 -0.13475,0.26458 -0.52917,0.26458 -0.39441,0 -0.62227,-0.11393 -0.52916,-0.26458 z m -9.00309,-1.97019 c -0.51907,-1.78553 -0.34155,-2.87817 0.84057,-5.17356 0.81059,-1.57398 2.26329,-3.30481 4.22695,-5.03625 2.00729,-1.76991 3.45838,-4.2477 3.16716,-5.40803 -0.20301,-0.80883 0.46047,-1.40796 1.03299,-0.93281 0.21828,0.18116 0.39688,0.53839 0.39688,0.79384 0,0.74021 -0.76743,2.37587 -1.47046,3.13405 -0.80117,0.86404 -0.81197,1.09807 -0.0509,1.10325 1.03441,0.007 1.40283,0.40297 1.11489,1.19816 -0.28894,0.79796 -1.75653,1.43309 -3.3266,1.43964 -1.92775,0.008 -4.37393,3.00014 -5.1554,6.30595 -0.26834,1.13518 -0.26722,1.65938 0.006,2.71198 0.27946,1.07735 0.27733,1.3048 -0.0123,1.3048 -0.19704,0 -0.5343,-0.63146 -0.76964,-1.44102 z m 7.98085,-9.93606 c 0.0218,0 0.11174,-0.18803 0.19992,-0.41784 0.13373,-0.3485 0.0177,-0.38734 -0.69929,-0.23403 -0.47281,0.10109 -1.00716,0.30261 -1.18746,0.44782 -0.55828,0.44961 -0.10485,0.70654 0.79266,0.44914 0.47002,-0.1348 0.87239,-0.24509 0.89417,-0.24509 z"
       id="path7376" />
    <g
       style="fill:none;stroke:#000000;stroke-linecap:round;stroke-linejoin:round;stroke-miterlimit:4;stroke-opacity:1"
       id="g6942"
       transform="translate(0.5655242,0.08316532)">
      <g
         style="stroke:#000000;stroke-width:0.194613"
         id="g6924">
        <title
           id="title6922">CharNewline</title>
      </g>
      <g
         style="stroke:#000000;stroke-width:0.194613"
         id="g6930">
        <title
           id="title6926">GreggA</title>
        <path
           d="m 109.504,161.85 c -1.621,1.599 3.344,0.972 3.556,-0.219 0.301,-1.696 -2.408,-0.823 -3.556,0.219"
           data-char="GreggA"
           data-head="C"
           data-tail="C"
           data-kana="a"
           data-model="C4"
           data-key=""
           data-speed-factor="1"
           data-scroll-y="0"
           data-speed="0.03"
           id="path6928" />
      </g>
    </g>
    <path
       d="m 111.68441,154.6099 c 2.01801,1.246 -1.60999,4.422 -3.49999,6.062"
       data-char="GreggR"
       data-head="EL"
       data-tail="EL"
       data-kana="r"
       data-model="EL7"
       data-key=""
       data-speed-factor="1"
       data-scroll-y="0"
       data-speed="0.03"
       id="path134"
       style="fill:none;stroke:#000000;stroke-width:0.425;stroke-linecap:round;stroke-linejoin:round;stroke-miterlimit:4;stroke-dasharray:none;stroke-opacity:1" />
    <g
       style="fill:none;stroke:#000000;stroke-linecap:round;stroke-linejoin:round;stroke-miterlimit:4;stroke-opacity:1"
       id="g148"
       transform="translate(-3.3297644,2.3671335)">
      <g
         style="stroke:#000000;stroke-width:0.212599"
         id="g130">
        <title
           id="title128">CharNewline</title>
      </g>
      <g
         style="stroke:#000000;stroke-width:0.212599"
         id="g136">
        <title
           id="title132">GreggR</title>
        <path
           d="m 111.51418,158.30477 c -1.89,1.64 -5.518,4.816 -3.5,6.062"
           data-char="GreggR"
           data-head="EL"
           data-tail="EL"
           data-kana="r"
           data-model="EL7"
           data-key=""
           data-speed-factor="1"
           data-scroll-y="0"
           data-speed="0.03"
           id="path134-1"
           style="stroke-width:0.425;stroke-miterlimit:4;stroke-dasharray:none" />
      </g>
    </g>
  </g>
</svg>
