<?xml version="1.0" encoding="UTF-8" standalone="no"?>
<!-- Created with Inkscape (http://www.inkscape.org/) -->

<svg
   width="210mm"
   height="297mm"
   viewBox="0 0 210 297"
   version="1.1"
   id="svg21395"
   sodipodi:docname="fat.svg"
   inkscape:version="1.1 (ce6663b3b7, 2021-05-25)"
   xmlns:inkscape="http://www.inkscape.org/namespaces/inkscape"
   xmlns:sodipodi="http://sodipodi.sourceforge.net/DTD/sodipodi-0.dtd"
   xmlns="http://www.w3.org/2000/svg"
   xmlns:svg="http://www.w3.org/2000/svg">
  <sodipodi:namedview
     id="namedview21397"
     pagecolor="#ffffff"
     bordercolor="#666666"
     borderopacity="1.0"
     inkscape:pageshadow="2"
     inkscape:pageopacity="0.0"
     inkscape:pagecheckerboard="0"
     inkscape:document-units="mm"
     showgrid="false"
     inkscape:zoom="15.907071"
     inkscape:cx="346.32398"
     inkscape:cy="537.15107"
     inkscape:window-width="1920"
     inkscape:window-height="1052"
     inkscape:window-x="1366"
     inkscape:window-y="0"
     inkscape:window-maximized="1"
     inkscape:current-layer="layer1" />
  <defs
     id="defs21392" />
  <g
     inkscape:label="Layer 1"
     inkscape:groupmode="layer"
     id="layer1">
    <path
       style="fill:#cccccc;stroke-width:0.259989"
       d="m 86.726643,146.71993 c 0,-0.70207 0.136815,-0.97556 0.584975,-1.16933 0.321737,-0.13912 0.760469,-0.35757 0.97496,-0.48547 0.21449,-0.1279 1.055393,-0.42435 1.868681,-0.65876 1.680534,-0.4844 2.501094,-1.28261 3.060263,-2.97692 0.325488,-0.98623 0.317313,-1.18393 -0.07645,-1.85058 -0.562844,-0.95281 -0.09168,-1.33678 0.685978,-0.55908 0.495966,0.49598 0.519844,0.66024 0.259681,1.78648 -0.157585,0.68216 -0.366562,1.4892 -0.464413,1.79342 -0.157802,0.4906 -0.09758,0.53777 0.532697,0.41729 0.49291,-0.0942 0.654249,-0.0446 0.526634,0.16184 -0.101192,0.16372 -0.392937,0.29768 -0.648324,0.29768 -0.255387,0 -1.330686,0.76764 -2.389555,1.70587 -1.973771,1.74891 -3.208309,2.45396 -4.296867,2.45396 -0.53404,0 -0.618222,-0.12478 -0.618222,-0.9164 z m 2.151367,-0.28977 c 1.359074,-0.68869 2.178828,-1.44956 1.733753,-1.60923 -0.307595,-0.11035 -3.179523,1.23851 -3.412984,1.60297 -0.172301,0.269 -0.04888,0.69245 0.201824,0.69245 0.06781,0 0.732645,-0.30879 1.477407,-0.68619 z"
       id="path21676" />
    <g
       style="fill:none;stroke:#000000;stroke-linecap:round;stroke-linejoin:round;stroke-miterlimit:4;stroke-opacity:1"
       id="g148"
       transform="rotate(180,101.22669,151.42596)">
      <g
         style="stroke:#000000;stroke-width:0.212599"
         id="g130">
        <title
           id="title128">CharNewline</title>
      </g>
      <g
         style="stroke:#000000;stroke-width:0.212599"
         id="g136">
        <title
           id="title132">GreggR</title>
        <path
           d="m 111.51418,158.30477 c -1.89,1.64 -5.518,4.816 -3.5,6.062"
           data-char="GreggR"
           data-head="EL"
           data-tail="EL"
           data-kana="r"
           data-model="EL7"
           data-key=""
           data-speed-factor="1"
           data-scroll-y="0"
           data-speed="0.03"
           id="path134"
           style="stroke-width:0.425;stroke-miterlimit:4;stroke-dasharray:none" />
      </g>
    </g>
    <g
       style="fill:none;stroke:#000000;stroke-linecap:round;stroke-linejoin:round;stroke-miterlimit:4;stroke-opacity:1"
       id="g14290"
       transform="rotate(180,49.701647,79.27357)">
      <g
         style="stroke:#000000;stroke-width:0.425197"
         transform="translate(6,10)"
         id="g14272">
        <title
           id="title14270">CharNewline</title>
      </g>
      <g
         style="stroke:#000000;stroke-width:0.425197"
         transform="translate(5,16)"
         id="g14278">
        <title
           id="title14274">GreggT</title>
        <path
           d="m 0,0 3.4641,-2"
           data-char="GreggT"
           data-head="NE"
           data-tail="NE"
           data-kana="t"
           data-model="NE4"
           data-key=""
           data-speed-factor="1"
           data-scroll-y="0"
           data-speed="0.03"
           id="path14276" />
      </g>
    </g>
    <path
       d="m 90.939194,144.54714 c -1.370462,1.24291 -2.766121,3.31294 -3.45921,2.16636 -0.743842,-1.23054 2.087379,-1.39297 3.45921,-2.16636"
       data-char="GreggA"
       data-head="C"
       data-tail="C"
       data-kana="a"
       data-model="C4"
       data-key=""
       data-speed-factor="1"
       data-scroll-y="0"
       data-speed="0.03"
       id="path14232"
       style="fill:none;stroke:#000000;stroke-width:0.425197;stroke-linecap:round;stroke-linejoin:round;stroke-miterlimit:4;stroke-opacity:1"
       sodipodi:nodetypes="csc" />
  </g>
</svg>
