<?xml version="1.0" encoding="UTF-8" standalone="no"?>
<!-- Created with Inkscape (http://www.inkscape.org/) -->

<svg
   width="210mm"
   height="297mm"
   viewBox="0 0 210 297"
   version="1.1"
   id="svg24849"
   sodipodi:docname="rach.svg"
   inkscape:version="1.1 (ce6663b3b7, 2021-05-25)"
   xmlns:inkscape="http://www.inkscape.org/namespaces/inkscape"
   xmlns:sodipodi="http://sodipodi.sourceforge.net/DTD/sodipodi-0.dtd"
   xmlns="http://www.w3.org/2000/svg"
   xmlns:svg="http://www.w3.org/2000/svg">
  <sodipodi:namedview
     id="namedview24851"
     pagecolor="#ffffff"
     bordercolor="#666666"
     borderopacity="1.0"
     inkscape:pageshadow="2"
     inkscape:pageopacity="0.0"
     inkscape:pagecheckerboard="0"
     inkscape:document-units="mm"
     showgrid="false"
     inkscape:zoom="22.495995"
     inkscape:cx="411.98444"
     inkscape:cy="572.96865"
     inkscape:window-width="1920"
     inkscape:window-height="1052"
     inkscape:window-x="1366"
     inkscape:window-y="0"
     inkscape:window-maximized="1"
     inkscape:current-layer="g25115" />
  <defs
     id="defs24846" />
  <g
     inkscape:label="Layer 1"
     inkscape:groupmode="layer"
     id="layer1">
    <path
       style="fill:#cccccc;stroke-width:0.211667"
       d="m 104.01133,158.00931 c 0,-0.18302 0.88106,-1.44509 1.95791,-2.80458 1.84876,-2.33399 2.48709,-3.24546 2.48709,-3.5513 0,-0.073 -0.40481,-0.0747 -0.89958,-0.004 -1.66224,0.2385 -3.96876,-0.57404 -3.96876,-1.39811 0,-0.41661 0.63883,-0.3699 1.15872,0.0847 0.7207,0.63022 1.18928,0.76205 2.80064,0.78793 1.2909,0.0207 1.32918,0.005 2.2225,-0.93055 0.49994,-0.52341 1.01638,-0.95204 1.14765,-0.9525 0.13126,-4.7e-4 0.35724,-0.14372 0.50216,-0.31835 0.30398,-0.36627 2.04345,-0.43215 2.54,-0.0962 0.265,0.17929 0.18991,0.3275 -0.45416,0.89634 -0.73321,0.64758 -1.37267,0.93882 -3.21153,1.46264 -0.47222,0.13452 -1.01925,0.50398 -1.31588,0.88873 -1.5249,1.97791 -2.44425,3.33861 -3.05865,4.52701 -0.63778,1.23363 -1.12788,1.74066 -1.68253,1.74066 -0.12407,0 -0.22558,-0.14975 -0.22558,-0.33278 z m 7.22297,-7.6062 c 1.36809,-0.47117 1.8787,-0.77453 1.8787,-1.11618 0,-0.66931 -2.1488,0.1362 -2.95514,1.10778 -0.34071,0.41053 -0.0967,0.41243 1.07644,0.008 z"
       id="path26465" />
    <g
       style="fill:none;stroke:#000000;stroke-linecap:round;stroke-linejoin:round;stroke-miterlimit:4;stroke-opacity:1"
       id="g24973"
       transform="translate(95.873571,135.69399)">
      <g
         style="stroke:#000000;stroke-width:0.425197"
         transform="translate(6,10)"
         id="g24955">
        <title
           id="title24953">CharNewline</title>
      </g>
      <g
         style="stroke:#000000;stroke-width:0.425197"
         transform="translate(5,14.4)"
         id="g24961">
        <title
           id="title24957">GreggR</title>
        <path
           d="m 0,0 c 0.069725,2.37067 4.63395,0.817184 7,0"
           data-char="GreggR"
           data-head="EL"
           data-tail="EL"
           data-kana="r"
           data-model="EL7"
           data-key=""
           data-speed-factor="1"
           data-scroll-y="0"
           data-speed="0.03"
           id="path24959" />
      </g>
    </g>
    <g
       style="fill:none;stroke:#000000;stroke-linecap:round;stroke-linejoin:round;stroke-miterlimit:4;stroke-opacity:1"
       id="g25127"
       transform="translate(-0.41160427,-0.31755652)">
      <g
         style="stroke:#000000;stroke-width:0.414967"
         id="g25109">
        <title
           id="title25107">CharNewline</title>
      </g>
      <g
         style="stroke:#000000;stroke-width:0.414967"
         id="g25115">
        <title
           id="title25111">GreggA</title>
        <path
           d="m 108.391,149.858 c 1.119,-0.523 3.817,-1.111 3.14,-2.113 -0.635,-0.94 -2.263,0.594 -3.14,2.113"
           data-char="GreggA"
           data-head="C"
           data-tail="C"
           data-kana="a"
           data-model="C4"
           data-key=""
           data-speed-factor="1"
           data-scroll-y="0"
           data-speed="0.03"
           id="path25113" />
      </g>
    </g>
    <g
       style="fill:none;stroke:#000000;stroke-linecap:round;stroke-linejoin:round;stroke-miterlimit:4;stroke-opacity:1"
       id="g25142"
       transform="translate(2.032164,28.81666)">
      <g
         style="stroke:#000000;stroke-width:0.425197"
         transform="translate(6,10)"
         id="g163">
        <title
           id="title161">CharNewline</title>
      </g>
      <g
         style="stroke:#000000;stroke-width:0.425197"
         transform="translate(9,12.1)"
         id="g169">
        <title
           id="title165">GreggCh</title>
        <path
           d="m 96.841407,109.17733 -3.5,6.06218"
           data-char="GreggCh"
           data-head="SW"
           data-tail="SW"
           data-kana="ch"
           data-model="SW7"
           data-key=""
           data-speed-factor="1"
           data-scroll-y="0"
           data-speed="0.03"
           id="path167" />
      </g>
    </g>
  </g>
</svg>
