<?xml version="1.0" encoding="UTF-8" standalone="no"?>
<!-- Created with Inkscape (http://www.inkscape.org/) -->

<svg
   width="210mm"
   height="297mm"
   viewBox="0 0 210 297"
   version="1.1"
   id="svg3667"
   sodipodi:docname="ran.svg"
   inkscape:version="1.1 (ce6663b3b7, 2021-05-25)"
   xmlns:inkscape="http://www.inkscape.org/namespaces/inkscape"
   xmlns:sodipodi="http://sodipodi.sourceforge.net/DTD/sodipodi-0.dtd"
   xmlns="http://www.w3.org/2000/svg"
   xmlns:svg="http://www.w3.org/2000/svg">
  <sodipodi:namedview
     id="namedview3669"
     pagecolor="#ffffff"
     bordercolor="#666666"
     borderopacity="1.0"
     inkscape:pageshadow="2"
     inkscape:pageopacity="0.0"
     inkscape:pagecheckerboard="0"
     inkscape:document-units="mm"
     showgrid="false"
     inkscape:zoom="31.814141"
     inkscape:cx="383.21009"
     inkscape:cy="549.6298"
     inkscape:window-width="1366"
     inkscape:window-height="713"
     inkscape:window-x="0"
     inkscape:window-y="27"
     inkscape:window-maximized="1"
     inkscape:current-layer="g3855" />
  <defs
     id="defs3664" />
  <g
     inkscape:label="Layer 1"
     inkscape:groupmode="layer"
     id="layer1">
    <path
       style="fill:#cccccc;stroke-width:0.202227"
       d="m 95.629078,147.6202 c -0.488039,-0.13133 -1.297283,-0.54313 -1.432501,-0.72897 -0.195179,-0.26823 0.04108,-0.93851 0.33077,-0.93851 0.14181,0 0.313935,0.22352 0.382495,0.49671 0.09296,0.37055 0.305165,0.53057 0.835288,0.63002 0.845865,0.15869 3.530352,-0.0645 3.947136,-0.32816 0.246598,-0.15601 0.239643,-0.1862 -0.04347,-0.18879 -0.421188,-0.004 -0.57518,-0.39811 -0.336664,-0.8619 0.226812,-0.44102 1.543958,-1.12355 2.793978,-1.44781 0.78811,-0.20443 1.0239,-0.197 1.38638,0.0437 0.51161,0.33969 0.55714,0.69792 0.13342,1.04957 -0.41631,0.34551 -0.38265,0.68226 0.0505,0.50578 0.79022,-0.3219 5.54507,-1.2888 5.81968,-1.18342 0.4806,0.18442 0.15352,0.4307 -0.76507,0.57604 -0.47212,0.0747 -1.40442,0.27433 -2.07177,0.44362 -0.66735,0.16928 -2.07787,0.47037 -3.13451,0.66909 -1.05663,0.19872 -2.55816,0.54839 -3.33674,0.77705 -1.326265,0.38951 -3.898512,0.66373 -4.558942,0.486 z m 6.833992,-1.91081 c 0.71564,-0.43156 0.87634,-0.97003 0.28949,-0.97003 -0.66801,0 -2.41022,0.60225 -2.67897,0.92607 -0.645941,0.77832 1.11791,0.81076 2.38948,0.044 z"
       id="path4033" />
    <g
       style="fill:none;stroke:#000000;stroke-linecap:round;stroke-linejoin:round;stroke-miterlimit:4;stroke-opacity:1"
       id="g3867">
      <g
         style="stroke:#000000;stroke-width:0.408701057188"
         id="g3849">
        <title
           id="title3847">CharNewline</title>
      </g>
      <g
         style="stroke:#000000;stroke-width:0.408701057188"
         id="g3855">
        <title
           id="title3851">GreggA</title>
        <path
           d="m 101.44138,145.6397 c 1.161,-0.403 2.226,-1.12 1.669,-1.666 -0.652,-0.639 -3.955895,0.477 -3.609495,1.285 0.2418,0.564 1.353495,0.381 1.940495,0.381"
           data-char="GreggA"
           data-head="C"
           data-tail="C"
           data-kana="a"
           data-model="C4"
           data-key=""
           data-speed-factor="1"
           data-scroll-y="0"
           data-speed="0.03"
           id="path3853" />
      </g>
    </g>
    <g
       style="fill:none;stroke:#000000;stroke-linecap:round;stroke-linejoin:round;stroke-miterlimit:4;stroke-opacity:1"
       id="g3889"
       transform="translate(96.576086,131.31323)">
      <g
         style="stroke:#000000;stroke-width:0.425197"
         transform="translate(6,10)"
         id="g3871">
        <title
           id="title3869">CharNewline</title>
      </g>
      <g
         style="stroke:#000000;stroke-width:0.425197"
         transform="translate(5,15)"
         id="g3877">
        <title
           id="title3873">GreggN</title>
        <path
           d="m 0,0 h 4"
           data-char="GreggN"
           data-head="E"
           data-tail="E"
           data-kana="n"
           data-model="E4"
           data-key=""
           data-speed-factor="1"
           data-scroll-y="0"
           data-speed="0.03"
           id="path3875" />
      </g>
    </g>
    <g
       style="fill:none;stroke:#000000;stroke-linecap:round;stroke-linejoin:round;stroke-miterlimit:4;stroke-opacity:1"
       id="g3911"
       transform="translate(89.576086,131.91323)">
      <g
         style="stroke:#000000;stroke-width:0.425197"
         transform="translate(6,10)"
         id="g3893">
        <title
           id="title3891">CharNewline</title>
      </g>
      <g
         style="stroke:#000000;stroke-width:0.425197"
         transform="translate(5,14.4)"
         id="g3899">
        <title
           id="title3895">GreggR</title>
        <path
           d="m 0,0 c 0.069725,2.37067 4.63395,0.817184 7,0"
           data-char="GreggR"
           data-head="EL"
           data-tail="EL"
           data-kana="r"
           data-model="EL7"
           data-key=""
           data-speed-factor="1"
           data-scroll-y="0"
           data-speed="0.03"
           id="path3897" />
      </g>
    </g>
  </g>
</svg>
