<?xml version="1.0" encoding="UTF-8" standalone="no"?>
<!-- Created with Inkscape (http://www.inkscape.org/) -->

<svg
   width="210mm"
   height="297mm"
   viewBox="0 0 210 297"
   version="1.1"
   id="svg5983"
   sodipodi:docname="rap.svg"
   inkscape:version="1.1 (ce6663b3b7, 2021-05-25)"
   xmlns:inkscape="http://www.inkscape.org/namespaces/inkscape"
   xmlns:sodipodi="http://sodipodi.sourceforge.net/DTD/sodipodi-0.dtd"
   xmlns="http://www.w3.org/2000/svg"
   xmlns:svg="http://www.w3.org/2000/svg">
  <sodipodi:namedview
     id="namedview5985"
     pagecolor="#ffffff"
     bordercolor="#666666"
     borderopacity="1.0"
     inkscape:pageshadow="2"
     inkscape:pageopacity="0.0"
     inkscape:pagecheckerboard="0"
     inkscape:document-units="mm"
     showgrid="false"
     inkscape:zoom="22.495995"
     inkscape:cx="407.89483"
     inkscape:cy="540.9185"
     inkscape:window-width="1920"
     inkscape:window-height="1052"
     inkscape:window-x="1366"
     inkscape:window-y="0"
     inkscape:window-maximized="1"
     inkscape:current-layer="g6113" />
  <defs
     id="defs5980" />
  <g
     inkscape:label="Layer 1"
     inkscape:groupmode="layer"
     id="layer1">
    <path
       style="fill:#cccccc;stroke-width:0.19859"
       d="m 103.77438,151.36413 c -0.53873,-0.76914 -0.39397,-2.12211 0.36125,-3.37627 l 0.6704,-1.11331 -1.03282,0.10659 c -1.20164,0.12403 -3.24147,-0.38689 -3.42189,-0.85708 -0.22012,-0.57361 0.25768,-0.74111 0.86036,-0.30162 0.40975,0.2988 1.01122,0.44856 2.18339,0.54362 1.59555,0.1294 1.63387,0.12165 2.78026,-0.56261 2.63944,-1.57544 4.01237,-2.01832 5.48172,-1.76828 0.0819,0.0139 0.14895,0.19678 0.14895,0.40632 0,0.71817 -2.52989,1.81817 -4.84759,2.10774 -0.93719,0.1171 -1.20526,0.24819 -1.73018,0.84602 -0.34163,0.3891 -0.74401,1.00152 -0.89419,1.36094 -0.3619,0.86617 -0.35011,2.14235 0.0227,2.45173 0.29443,0.24436 0.23676,0.59758 -0.0976,0.59758 -0.0966,0 -0.31471,-0.19861 -0.48474,-0.44137 z m 4.85481,-5.69135 c 1.52864,-0.44266 2.38245,-0.81838 2.38245,-1.04838 0,-0.2395 -0.87942,-0.20533 -1.52973,0.0595 -3.13284,1.2755 -3.56231,1.7736 -0.85272,0.98894 z"
       id="path7538" />
    <g
       style="fill:none;stroke:#000000;stroke-linecap:round;stroke-linejoin:round;stroke-miterlimit:4;stroke-opacity:1"
       id="g6125"
       transform="translate(1.133357,0.10340337)">
      <g
         style="stroke:#000000;stroke-width:0.420864"
         id="g6107">
        <title
           id="title6105">CharNewline</title>
      </g>
      <g
         style="stroke:#000000;stroke-width:0.420864"
         id="g6113">
        <title
           id="title6109">GreggA</title>
        <path
           d="m 104.84649,146.36476 c 0.94066,-0.3221 5.1313,-1.48565 4.68552,-2.3612 -0.75979,-1.4923 -3.94452,1.9332 -4.68552,2.3612"
           data-char="GreggA"
           data-head="C"
           data-tail="C"
           data-kana="a"
           data-model="C4"
           data-key=""
           data-speed-factor="1"
           data-scroll-y="0"
           data-speed="0.03"
           id="path6111"
           sodipodi:nodetypes="csc" />
      </g>
    </g>
    <g
       style="fill:none;stroke:#000000;stroke-linecap:round;stroke-linejoin:round;stroke-miterlimit:4;stroke-opacity:1"
       id="g148"
       transform="translate(-3.7912851,-8.4302971)">
      <g
         style="stroke:#000000;stroke-width:0.212599"
         id="g130">
        <title
           id="title128">CharNewline</title>
      </g>
      <g
         style="stroke:#000000;stroke-width:0.212599"
         id="g136"
         transform="translate(-1.7430449,-3.4063129)">
        <title
           id="title132">GreggR</title>
        <path
           d="m 111.51418,158.30477 c -1.89,1.64 -5.518,4.816 -3.5,6.062"
           data-char="GreggR"
           data-head="EL"
           data-tail="EL"
           data-kana="r"
           data-model="EL7"
           data-key=""
           data-speed-factor="1"
           data-scroll-y="0"
           data-speed="0.03"
           id="path134"
           style="stroke-width:0.425;stroke-miterlimit:4;stroke-dasharray:none" />
      </g>
    </g>
    <g
       style="fill:none;stroke:#000000;stroke-linecap:round;stroke-linejoin:round;stroke-miterlimit:4;stroke-opacity:1"
       id="g6169"
       transform="translate(93.97985,132.06816)">
      <g
         style="stroke:#000000;stroke-width:0.425197"
         transform="translate(6,10)"
         id="g6151">
        <title
           id="title6149">CharNewline</title>
      </g>
      <g
         style="stroke:#000000;stroke-width:0.425197"
         transform="translate(5,14.4)"
         id="g6157">
        <title
           id="title6153">GreggR</title>
        <path
           d="m 0,0 c 0.069725,2.37067 4.63395,0.817184 7,0"
           data-char="GreggR"
           data-head="EL"
           data-tail="EL"
           data-kana="r"
           data-model="EL7"
           data-key=""
           data-speed-factor="1"
           data-scroll-y="0"
           data-speed="0.03"
           id="path6155" />
      </g>
    </g>
  </g>
</svg>
