<?xml version="1.0" encoding="UTF-8" standalone="no"?>
<!-- Created with Inkscape (http://www.inkscape.org/) -->

<svg
   width="210mm"
   height="297mm"
   viewBox="0 0 210 297"
   version="1.1"
   id="svg67"
   sodipodi:docname="rar.svg"
   inkscape:version="1.1 (ce6663b3b7, 2021-05-25)"
   xmlns:inkscape="http://www.inkscape.org/namespaces/inkscape"
   xmlns:sodipodi="http://sodipodi.sourceforge.net/DTD/sodipodi-0.dtd"
   xmlns="http://www.w3.org/2000/svg"
   xmlns:svg="http://www.w3.org/2000/svg">
  <sodipodi:namedview
     id="namedview69"
     pagecolor="#ffffff"
     bordercolor="#666666"
     borderopacity="1.0"
     inkscape:pageshadow="2"
     inkscape:pageopacity="0.0"
     inkscape:pagecheckerboard="0"
     inkscape:document-units="mm"
     showgrid="false"
     inkscape:snap-nodes="true"
     inkscape:zoom="11.247998"
     inkscape:cx="413.62918"
     inkscape:cy="544.45247"
     inkscape:window-width="1366"
     inkscape:window-height="713"
     inkscape:window-x="0"
     inkscape:window-y="27"
     inkscape:window-maximized="1"
     inkscape:current-layer="g243" />
  <defs
     id="defs64" />
  <g
     inkscape:label="Layer 1"
     inkscape:groupmode="layer"
     id="layer1">
    <path
       style="fill:#cccccc;stroke-width:0.180867"
       d="m 107.88552,145.54802 c -0.90029,-0.20205 -1.88852,-1.12745 -1.5575,-1.45846 0.16563,-0.16562 0.33467,-0.0997 0.74012,0.28877 0.44878,0.42996 0.69308,0.50914 1.67421,0.54257 0.63181,0.0215 1.59639,-0.0469 2.14351,-0.15192 0.94212,-0.18096 0.99776,-0.22199 1.05115,-0.77493 0.14781,-1.53059 3.67588,-2.6715 4.45146,-1.4395 0.26359,0.4187 -0.55976,1.0943 -1.84005,1.50989 -0.52225,0.16952 -0.94955,0.37475 -0.94955,0.45606 0,0.25669 2.99793,0.16003 4.14419,-0.13364 0.60426,-0.1548 1.2416,-0.31035 1.41632,-0.34567 0.61783,-0.12487 1.23985,-0.42397 1.47767,-0.71051 0.33928,-0.40883 0.59378,-0.36033 0.52559,0.1002 -0.0814,0.55013 -1.08886,1.01774 -3.0758,1.42775 -1.87015,0.3859 -3.85638,0.45038 -4.90484,0.15923 -0.53127,-0.14752 -0.88179,-0.12997 -1.53737,0.077 -0.46706,0.14744 -1.24621,0.32183 -1.73144,0.38752 -0.48524,0.0657 -0.97357,0.14468 -1.0852,0.17555 -0.11163,0.0308 -0.53574,-0.0186 -0.94247,-0.10987 z m 6.04234,-1.60724 c 1.81594,-0.69021 2.47127,-1.44393 1.2536,-1.44184 -1.41886,0.002 -2.72599,0.73216 -2.5458,1.42122 0.12335,0.47162 0.10631,0.47135 1.2922,0.0206 z m -8.00316,-0.15628 c -0.11733,-0.18984 0.33394,-0.60836 0.48889,-0.45341 0.13966,0.13965 -0.045,0.61378 -0.23894,0.61378 -0.0829,0 -0.19544,-0.0722 -0.24995,-0.16037 z"
       id="path297" />
    <g
       style="fill:none;stroke:#000000;stroke-linecap:round;stroke-linejoin:round;stroke-miterlimit:4;stroke-opacity:1"
       id="g255">
      <g
         style="stroke:#000000;stroke-width:0.425197"
         id="g237">
        <title
           id="title235">CharNewline</title>
      </g>
      <g
         style="stroke:#000000;stroke-width:0.425197"
         id="g243">
        <title
           id="title239">GreggA</title>
        <path
           d="m 110.35831,142.4639 c 0.843,-0.299 3.587,-0.964 3.582,-1.956 -0.004,-0.668 -1.574,-0.473 -2.299,-0.22 -0.994,0.347 -1.489,0.841 -1.283,2.176"
           data-char="GreggA"
           data-head="C"
           data-tail="C"
           data-kana="a"
           data-model="C4"
           data-key=""
           data-speed-factor="1"
           data-scroll-y="0"
           data-speed="0.03"
           id="path241" />
      </g>
    </g>
    <g
       style="fill:none;stroke:#000000;stroke-linecap:round;stroke-linejoin:round;stroke-miterlimit:4;stroke-opacity:1"
       id="g277"
       transform="translate(100.41331,130.2759)">
      <g
         style="stroke:#000000;stroke-width:0.425197"
         transform="translate(6,10)"
         id="g259">
        <title
           id="title257">CharNewline</title>
      </g>
      <g
         style="stroke:#000000;stroke-width:0.425197"
         transform="translate(5,14.4)"
         id="g265">
        <title
           id="title261">GreggR</title>
        <path
           d="m 0,0 c 0.069725,2.37067 4.63395,0.817184 7,0"
           data-char="GreggR"
           data-head="EL"
           data-tail="EL"
           data-kana="r"
           data-model="EL7"
           data-key=""
           data-speed-factor="1"
           data-scroll-y="0"
           data-speed="0.03"
           id="path263" />
      </g>
    </g>
    <g
       style="fill:none;stroke:#000000;stroke-linecap:round;stroke-linejoin:round;stroke-miterlimit:4;stroke-opacity:1"
       id="g657"
       transform="translate(107.41331,130.2759)">
      <g
         style="stroke:#000000;stroke-width:0.425197"
         transform="translate(6,10)"
         id="g649">
        <title
           id="title647">CharNewline</title>
      </g>
      <g
         style="stroke:#000000;stroke-width:0.425197"
         transform="translate(5,14.4)"
         id="g655">
        <title
           id="title651">GreggR</title>
        <path
           d="m 0,0 c 0.069725,2.37067 4.63395,0.817184 7,0"
           data-char="GreggR"
           data-head="EL"
           data-tail="EL"
           data-kana="r"
           data-model="EL7"
           data-key=""
           data-speed-factor="1"
           data-scroll-y="0"
           data-speed="0.03"
           id="path653" />
      </g>
    </g>
  </g>
</svg>
