<?xml version="1.0" encoding="UTF-8" standalone="no"?>
<!-- Created with Inkscape (http://www.inkscape.org/) -->

<svg
   width="210mm"
   height="297mm"
   viewBox="0 0 210 297"
   version="1.1"
   id="svg1180"
   sodipodi:docname="ta.svg"
   inkscape:version="1.1 (ce6663b3b7, 2021-05-25)"
   xmlns:inkscape="http://www.inkscape.org/namespaces/inkscape"
   xmlns:sodipodi="http://sodipodi.sourceforge.net/DTD/sodipodi-0.dtd"
   xmlns="http://www.w3.org/2000/svg"
   xmlns:svg="http://www.w3.org/2000/svg">
  <sodipodi:namedview
     id="namedview1182"
     pagecolor="#ffffff"
     bordercolor="#666666"
     borderopacity="1.0"
     inkscape:pageshadow="2"
     inkscape:pageopacity="0.0"
     inkscape:pagecheckerboard="0"
     inkscape:document-units="mm"
     showgrid="false"
     inkscape:zoom="31.814141"
     inkscape:cx="364.44485"
     inkscape:cy="550.85567"
     inkscape:window-width="1366"
     inkscape:window-height="713"
     inkscape:window-x="0"
     inkscape:window-y="27"
     inkscape:window-maximized="1"
     inkscape:current-layer="layer1" />
  <defs
     id="defs1177" />
  <g
     inkscape:label="Layer 1"
     inkscape:groupmode="layer"
     id="layer1">
    <path
       style="fill:#cccccc;stroke-width:0.211667"
       d="m 92.862329,147.42673 c 0.187496,0.0932 0.7554,-0.0917 1.30606,-0.42539 l 0.974443,-0.59058 0.217657,0.62237 c 0.294086,0.8409 0.870562,1.09359 1.785923,0.78285 1.840753,-0.62489 3.513898,-2.76396 2.553272,-3.26427 -0.493937,-0.25733 -2.148028,0.0203 -2.782458,0.46689 -0.318432,0.22414 -0.684208,0.35716 -0.812831,0.29555 -0.128712,-0.0614 -0.643357,0.20077 -1.143872,0.58308 -0.500517,0.38229 -1.217516,0.78307 -1.593345,0.8906 -0.811886,0.2323 -0.95573,0.41433 -0.504849,0.6389 z m 3.74495,-1.83325 c 0.64229,-0.45213 2.241371,-0.76906 2.693181,-0.53375 0.267817,0.13955 0.234411,0.27841 -0.211562,0.87898 -0.941652,1.26807 -2.515215,1.7851 -3.049975,1.00213 -0.320914,-0.46987 -0.170017,-0.82758 0.568356,-1.34736 z"
       id="path1410" />
    <g
       style="fill:none;stroke:#000000;stroke-linecap:round;stroke-linejoin:round;stroke-miterlimit:4;stroke-opacity:1"
       id="g1368"
       transform="translate(2.6e-5,-2.5e-4)">
      <g
         style="stroke:#000000;stroke-width:0.351012"
         id="g1350">
        <title
           id="title1348">CharNewline</title>
      </g>
      <g
         style="stroke:#000000;stroke-width:0.351012"
         id="g1356">
        <title
           id="title1352">GreggA</title>
        <path
           d="m 95.3288,146.023 c 1.068987,-0.61723 3.4352,-1.707 4.1888,-1.186 1.0954,0.756 -3.192844,4.9024 -4.1888,1.186"
           data-char="GreggA"
           data-head="C"
           data-tail="C"
           data-kana="a"
           data-model="C4"
           data-key=""
           data-speed-factor="1"
           data-scroll-y="0"
           data-speed="0.03"
           id="path1354"
           sodipodi:nodetypes="ccc" />
      </g>
    </g>
    <g
       style="fill:none;stroke:#000000;stroke-linecap:round;stroke-linejoin:round;stroke-miterlimit:4;stroke-opacity:1"
       id="g1390"
       transform="translate(86.864726,132.02275)">
      <g
         style="stroke:#000000;stroke-width:0.425197"
         transform="translate(6,10)"
         id="g1372">
        <title
           id="title1370">CharNewline</title>
      </g>
      <g
         style="stroke:#000000;stroke-width:0.425197"
         transform="translate(5,16)"
         id="g1378">
        <title
           id="title1374">GreggT</title>
        <path
           d="m 0,0 3.4641,-2"
           data-char="GreggT"
           data-head="NE"
           data-tail="NE"
           data-kana="t"
           data-model="NE4"
           data-key=""
           data-speed-factor="1"
           data-scroll-y="0"
           data-speed="0.03"
           id="path1376" />
      </g>
    </g>
  </g>
</svg>
