<?xml version="1.0" encoding="UTF-8" standalone="no"?>
<!-- Created with Inkscape (http://www.inkscape.org/) -->

<svg
   width="210mm"
   height="297mm"
   viewBox="0 0 210 297"
   version="1.1"
   id="svg5"
   inkscape:version="1.1 (ce6663b3b7, 2021-05-25)"
   sodipodi:docname="tan.svg"
   xmlns:inkscape="http://www.inkscape.org/namespaces/inkscape"
   xmlns:sodipodi="http://sodipodi.sourceforge.net/DTD/sodipodi-0.dtd"
   xmlns="http://www.w3.org/2000/svg"
   xmlns:svg="http://www.w3.org/2000/svg">
  <sodipodi:namedview
     id="namedview7"
     pagecolor="#ffffff"
     bordercolor="#666666"
     borderopacity="1.0"
     inkscape:pageshadow="2"
     inkscape:pageopacity="0.0"
     inkscape:pagecheckerboard="0"
     inkscape:document-units="mm"
     showgrid="false"
     inkscape:snap-nodes="true"
     inkscape:zoom="15.907071"
     inkscape:cx="376.40494"
     inkscape:cy="529.0729"
     inkscape:window-width="1366"
     inkscape:window-height="713"
     inkscape:window-x="0"
     inkscape:window-y="27"
     inkscape:window-maximized="1"
     inkscape:current-layer="layer1" />
  <defs
     id="defs2" />
  <g
     inkscape:label="Layer 1"
     inkscape:groupmode="layer"
     id="layer1">
    <path
       style="fill:#cccccc;stroke-width:0.22769"
       d="m 96.481373,142.76574 c 0,-0.34344 1.146197,-1.2678 1.572047,-1.2678 0.13721,0 0.24947,-0.10241 0.24947,-0.2277 0,-0.12522 -0.14234,-0.22768 -0.31631,-0.22768 -0.17398,0 -0.5409,-0.18186 -0.815381,-0.40413 -0.448277,-0.36299 -0.469458,-0.46913 -0.208052,-1.04287 0.607023,-1.33227 3.530563,-2.06933 4.086643,-1.03028 0.2117,0.39555 0.17109,0.60068 -0.2249,1.13628 l -0.48322,0.6536 1.31444,-0.0548 c 1.96782,-0.082 1.83903,0.36941 -0.16555,0.58023 -1.1034,0.11603 -1.92599,0.33759 -2.32462,0.62614 -0.3393,0.2456 -0.70567,0.44656 -0.81414,0.44656 -0.10847,0 -0.43787,0.25615 -0.73198,0.56922 -0.5917,0.62985 -1.138447,0.74664 -1.138447,0.2432 z m 3.341777,-2.69087 c 0.75169,-0.83497 0.7987,-1.04299 0.29648,-1.31176 -0.6168,-0.33011 -1.95287,0.0891 -2.28966,0.7184 -0.558269,1.04314 1.1346,1.5471 1.99318,0.59336 z m 4.75787,0.31157 c -0.17592,-0.28464 0.55199,-0.68933 0.97093,-0.5398 0.27034,0.0965 3.20046,-0.18738 5.55851,-0.5385 0.63996,-0.0953 0.85383,-0.0474 0.85383,0.19104 0,0.2446 -0.7735,0.3864 -3.3455,0.61327 -1.84003,0.16231 -3.46904,0.3425 -3.62002,0.40044 -0.15097,0.058 -0.33896,0.001 -0.41775,-0.12645 z"
       id="path502" />
    <g
       style="fill:none;stroke:#000000;stroke-linecap:round;stroke-linejoin:round;stroke-miterlimit:4;stroke-opacity:1"
       id="g122"
       transform="rotate(67.232998,-43.365292,137.67047)">
      <g
         style="stroke:#000000;stroke-width:0.425197"
         transform="translate(6,10)"
         id="g104">
        <title
           id="title102">CharNewline</title>
      </g>
      <g
         style="stroke:#000000;stroke-width:0.425197"
         transform="translate(13.471268,5.8280835)"
         id="g110">
        <title
           id="title106">GreggA</title>
        <path
           d="m -1.469164,4.9364342 c -0.2063547,-1.6259346 -1.2084975,-2.0214751 -1.6449729,-1.6304313 -1.0898028,0.9763678 -0.8883238,3.4546577 0.1957031,3.3879943 0.8411534,-0.051728 0.9125325,-0.4906193 1.4492698,-1.757563"
           data-char="GreggA"
           data-head="C"
           data-tail="C"
           data-kana="a"
           data-model="C4"
           data-key=""
           data-speed-factor="1"
           data-scroll-y="0"
           data-speed="0.03"
           id="path108"
           sodipodi:nodetypes="cssc" />
      </g>
    </g>
    <g
       style="fill:none;stroke:#000000;stroke-linecap:round;stroke-linejoin:round;stroke-miterlimit:4;stroke-opacity:1"
       id="g144"
       transform="translate(94.576633,125.7863)">
      <g
         style="stroke:#000000;stroke-width:0.425197"
         transform="translate(6,10)"
         id="g126">
        <title
           id="title124">CharNewline</title>
      </g>
      <g
         style="stroke:#000000;stroke-width:0.425197"
         transform="translate(5,15)"
         id="g132">
        <title
           id="title128">GreggN</title>
        <path
           d="m 0,0 h 4"
           data-char="GreggN"
           data-head="E"
           data-tail="E"
           data-kana="n"
           data-model="E4"
           data-key=""
           data-speed-factor="1"
           data-scroll-y="0"
           data-speed="0.03"
           id="path130" />
      </g>
    </g>
    <g
       style="fill:none;stroke:#000000;stroke-linecap:round;stroke-linejoin:round;stroke-miterlimit:4;stroke-opacity:1"
       id="g166"
       transform="translate(91.112533,126.7863)">
      <g
         style="stroke:#000000;stroke-width:0.425197"
         transform="translate(6,10)"
         id="g148">
        <title
           id="title146">CharNewline</title>
      </g>
      <g
         style="stroke:#000000;stroke-width:0.425197"
         transform="translate(5,16)"
         id="g154">
        <title
           id="title150">GreggT</title>
        <path
           d="m 0,0 3.4641,-2"
           data-char="GreggT"
           data-head="NE"
           data-tail="NE"
           data-kana="t"
           data-model="NE4"
           data-key=""
           data-speed-factor="1"
           data-scroll-y="0"
           data-speed="0.03"
           id="path152" />
      </g>
    </g>
  </g>
</svg>
